<?xml version="1.0" encoding="utf-8"?>
<!-- Generator: Adobe Illustrator 27.9.0, SVG Export Plug-In . SVG Version: 6.00 Build 0)  -->
<svg version="1.1" id="Livello_1" xmlns="http://www.w3.org/2000/svg" xmlns:xlink="http://www.w3.org/1999/xlink" x="0px" y="0px"
	 viewBox="0 0 626 194.3" style="enable-background:new 0 0 626 194.3;" xml:space="preserve">
<style type="text/css">
	.st0{fill:#1E1E1C;}
</style>
<g>
	<polygon class="st0" points="211.4,193.8 230.3,193.8 230.3,190.5 215,190.5 215,179.6 229,179.6 229,176.3 215,176.3 215,165.6 
		230.3,165.6 230.3,162.3 211.4,162.3 	"/>
	<path class="st0" d="M281.4,162.3l-12.8,31.5h3.8l3.8-9.5h14.2l3.8,9.5h3.8l-12.8-31.5H281.4z M289,181h-11.5l5.7-14.5L289,181z"/>
	<path class="st0" d="M261.9,171.4c0-5.3-4-9.1-9.5-9.1h-11.1v31.5h3.6v-13.3h5.8l7.4,13.3h4.1l-7.7-13.6
		C258.9,179.4,261.9,175.9,261.9,171.4z M258.3,171.4c0,3.5-2.5,5.8-6.4,5.8h-7.1v-11.7h7.1C255.8,165.5,258.3,167.9,258.3,171.4z"
		/>
	<path class="st0" d="M198.1,183c-1.3,4.9-5.3,8-10.6,8c-5.7,0-11.9-4.1-11.9-13c0-9,6.2-13,11.9-13c5.3,0,9.2,2.9,10.4,7.8l0.1,0.4
		l3.2-1.1l-0.1-0.3c-1.5-6.2-6.7-10.1-13.6-10.1c-10,0-15.4,8.4-15.4,16.3c0,10.7,7.8,16.3,15.4,16.3c6.7,0,12.1-4,13.7-10.2
		l0.1-0.3l-3.1-1.1L198.1,183z"/>
	<polygon class="st0" points="323.7,188.8 311.8,162.3 307.2,162.3 307.2,193.8 310.8,193.8 310.8,168.6 322.1,193.8 325.2,193.8 
		336.6,168.6 336.6,193.8 340.2,193.8 340.2,162.3 335.7,162.3 	"/>
	<polygon class="st0" points="427.1,176.1 410.3,176.1 410.3,162.3 406.8,162.3 406.8,193.8 410.3,193.8 410.3,179.4 427.1,179.4 
		427.1,193.8 430.7,193.8 430.7,162.3 427.1,162.3 	"/>
	<polygon class="st0" points="462.5,165.6 462.5,162.3 443.6,162.3 443.6,193.8 462.5,193.8 462.5,190.5 447.1,190.5 447.1,179.6 
		461.1,179.6 461.1,176.3 447.1,176.3 447.1,165.6 	"/>
	<rect x="353.1" y="162.3" class="st0" width="3.6" height="31.5"/>
	<path class="st0" d="M393.4,183c-1.3,4.9-5.3,8-10.6,8c-5.7,0-11.9-4.1-11.9-13c0-9,6.2-13,11.9-13c5.3,0,9.2,2.9,10.4,7.8l0.1,0.4
		l3.2-1.1l-0.1-0.3c-1.5-6.2-6.7-10.1-13.6-10.1c-10,0-15.4,8.4-15.4,16.3c0,10.7,7.8,16.3,15.4,16.3c6.8,0,12.1-4,13.7-10.2
		l0.1-0.3l-3.1-1.1L393.4,183z"/>
</g>
<g>
	<g>
		<path class="st0" d="M344.2,124.4c10.9,0.2,19.8-2.9,26.9-9.2c7.1-6.3,10.8-14.9,11-25.7c0.7-41.7-67-32.7-66.5-67.4
			c0.2-9.7,8.1-15.5,19.3-15.3c7.9,0.1,16.8,1.6,24,8.3c7.2,6.5,13.3,15.7,16.6,27.4c0.1,0.4,0.5,0.7,0.9,0.7l0.9,0
			c0.6,0,1-0.5,1-1.1l-5.1-36.7c-0.2-1.1-1.3-1.7-2.3-1.3c-3.2,1.5-9.6,3.8-15.1,2c-4.5-1.9-13.6-4-20.7-4.1
			c-9.2-0.2-17.2,3.2-23.7,9.8c-6.4,6.6-9.8,14.4-9.9,23.1c-0.6,38,66.8,34.5,66.3,66.3c-0.2,13.3-10,18.7-24.1,18.5
			c-9.6-0.2-17.2-3.6-25.1-11.9c-6-6.4-11.7-14.2-15.6-28.2c-0.1-0.4-0.5-0.7-0.9-0.7l-1,0c-0.6,0-1,0.5-1,1.1l4.9,43.3l1.3,0
			c3.7-8.3,9.2-7,16.9-3.6C327.9,121.6,336.6,124.2,344.2,124.4"/>
	</g>
	<path class="st0" d="M574.1,107c0,0-26.1-41.5-26.5-43c8.8-3.1,22.6-12.3,22.6-28.3c0-11-4.7-17.3-12.1-22.3
		c-8.8-6.1-18.9-9.3-32.6-9.3l-34.4,0.1c-0.5,0-0.9,0.4-0.9,0.9v0.5c0,0.5,0.3,0.8,0.8,0.9c5.5,1.1,8.1,5.8,8.1,14.4v84.5
		c0,8.7-3.9,13.2-8.2,14.3c-0.4,0.1-0.8,0.5-0.8,0.9v1.4h36.8l0-1.4c0-0.4-0.3-0.8-0.8-0.9c-4.2-1-7.8-5.6-7.8-14.3V67
		c0-0.5,0.4-0.9,0.9-0.9l10.1,0c0.7,0,1.3,0.4,1.6,1l24.6,44.4c4.4,7,10,10.6,16.7,10.6h16.4c0.5,0,0.9-0.4,0.9-0.9v-0.3
		c0-0.5-0.4-0.9-0.8-0.9C583.9,119,579,114.8,574.1,107z M519.8,60.8c-0.7,0-1.2-0.6-1.2-1.3l0-49.5c0-0.7,0.6-1.3,1.3-1.3
		c10.2,0.2,19.1,1,25.4,6.3c6.4,5.3,9,11.1,9,20.3c0,14.5-10.3,25.4-25.9,25.4C526.8,60.8,524,60.9,519.8,60.8z"/>
	<path class="st0" d="M288.7,88.3c-0.9,0-1.6,0.5-1.9,1.3c-7.6,19.8-18.1,27.4-37.9,27.4c-7.1,0-12.6,0.3-17.3-1.5
		c-1-0.4-1.7-1.4-1.7-2.5l0.1-47.8c0-1,0.8-1.9,1.9-1.9h13.2c13.2,0,18.7,3.8,20.1,12.7c0.1,0.7,0.7,1.2,1.4,1.2h0
		c0.6,0,1.1-0.5,1.1-1.1V46.9c0-0.6-0.5-1.1-1.1-1.1l0,0c-0.7,0-1.4,0.5-1.5,1.3C264.2,56,258.2,58,245,58h-13.2
		c-1,0-1.9-0.8-1.9-1.9l-0.1-45.7c0-1,0.8-1.8,1.8-1.8h11.2c14.3,0,25.9-0.4,31.7,5.5c5.8,5.9,6.2,10.7,7.3,16.9
		c0.1,0.8,0.9,1.4,1.7,1.4l1.3,0l-3.7-30.8c-0.3-1.2-1.6-1.8-2.7-1.2c-4.4,2.1-12.1,4.3-20.8,4.3c0,0-39.1-0.2-45.1-0.2
		c-4.7,0-14.6-1.3-18.7-1.8c-1-0.1-1.9,0.6-1.9,1.6v0c0,0.9,0.6,1.6,1.5,1.7c2.1,0.2,4.4,0.7,4.6,3.6c0.3,3.6-1.4,7.5-1.7,8.4
		c-1.2,4.4-7.5,17.3-17.7,39.3c-8.6,18.6-23.3,46.5-23.3,46.5c-4.9,9.5-9.2,14.7-16.3,15.5c-0.8,0.1-1.5,0.7-1.7,1.6l-0.1,0.8h33.5
		l0-0.6c0-0.9-0.7-1.7-1.6-1.8c-6-1-8.5-5.1-7.2-11.9c0.9-4.4,13.4-30.2,20.1-44.1l26.9-0.1c1,0,1.8,0.8,1.8,1.8l0,41.3
		c0,6.8-3.5,11.2-7.2,12.6c-0.8,0.3-1.5,1.1-1.5,2v0.7H261c8.5,0,15.9,1,20.2,2.9c1.1,0.5,2.3-0.1,2.6-1.3l6.3-34.8L288.7,88.3z
		 M184.9,58.1c0,0,16.6-37.1,21.1-47.8c1-2.4,4.4-2.5,4.4-0.3c0,0.5,0.3,37.2,0.3,46.2c0,1.1-0.9,1.9-1.9,1.9L184.9,58.1z"/>
	<g>
		<path class="st0" d="M437.5,66.8l-21.5-0.3c-1.3,0-2.1-1.2-1.8-2.4c2.2-7.7,9.1-32.2,11.6-42c0.2-0.9,1.7-0.9,2,0l11.5,42.3
			C439.7,65.6,438.8,66.8,437.5,66.8z M435.7,0.2c-4.7,3-8.9,5-12.8,6.2c-1.3,0.4-2.2,1.6-2,3c0.2,1.8,0.3,3.6,0.3,5.5
			c0,1,0,2.1-0.2,3.3c-0.5,4.4-4.2,17.5-11.2,39.3c-1.1,3.4-2.1,6.1-2.6,7.9c-1.8,5.7-4.5,13.7-8.4,24.9l-4.5,13.8
			c-3.3,9.4-8.6,14.6-15.7,15.4c-1,0.1-1.7,0.9-1.7,1.9v0.5h33.7v-0.6c0-0.9-0.7-1.7-1.6-1.9c-6-1-7.2-5.2-7.4-12
			c-0.2-3.6,5.1-21.1,9.4-34.7c0.3-0.8,1-1.3,1.8-1.3l27.6,0.5c0.8,0,1.5,0.6,1.8,1.3l5.5,20c2.6,7.9,3.7,13.4,3.4,16.9
			c-0.4,6.2-3.4,8.1-6.9,9.1c-0.8,0.2-1.4,1-1.4,1.8v0.8H485l0-0.9c0-0.8-0.5-1.5-1.3-1.8c-4.8-1.6-8-4.6-10.6-9.8
			c-1.3-2.8-1.6-3.6-2.9-7l-1.5-3.9l-1.3-4.4l-1.5-4.6c0,0-23.9-75.1-28.1-88.2C437.7,0.1,436.5-0.3,435.7,0.2z"/>
	</g>
	<path class="st0" d="M106,123.8c10.3,0.1,20.2-3.3,27.5-10.3c7.2-6.8,11.2-15.6,13.9-26.2c0.1-0.5,0-1.6-1.1-1.9
		c-1-0.3-1.8,0.4-2,0.9c-6.4,16-17.3,23.4-29.7,23.2c-14.8-0.1-26.5-8-32.7-19.8C76,78,73.1,68.2,73.5,55c0.4-13.1,0.6-26.3,10-38
		c6.3-7.8,16.1-11.4,24.8-11.1c16.7,0.5,30.7,5.7,37.7,35.9c0.1,0.2,0.4,1.2,2,1.1c1.6-0.1,1.7-0.9,1.6-1.2l-4.8-35.3
		c-0.2-1.3-1.7-2-2.8-1.4c-4.7,2.7-8.9,2.4-12.1,0.7c-3.4-2.2-13.3-5-20.8-5.1C95,0.6,81.7,6.4,71.2,18.4
		C60.7,30.1,55.4,44.6,54.9,61.8C53.3,94.8,73.8,123.8,106,123.8"/>
</g>
<g>
	<path class="st0" d="M607.6,73.8L592,58.3c-0.7-0.7-0.7-1.7,0-2.4l15.5-15.5c0.7-0.7,1.7-0.7,2.4,0l15.5,15.5
		c0.7,0.7,0.7,1.7,0,2.4L610,73.8C609.3,74.5,608.2,74.5,607.6,73.8z"/>
	<path class="st0" d="M16,73.8L0.5,58.3c-0.7-0.7-0.7-1.7,0-2.4L16,40.3c0.7-0.7,1.7-0.7,2.4,0L34,55.9c0.7,0.7,0.7,1.7,0,2.4
		L18.4,73.8C17.8,74.5,16.7,74.5,16,73.8z"/>
</g>
</svg>
