<?xml version="1.0" encoding="utf-8"?>
<!-- Generator: Adobe Illustrator 23.0.1, SVG Export Plug-In . SVG Version: 6.00 Build 0)  -->
<svg version="1.1" id="Livello_1" xmlns="http://www.w3.org/2000/svg" xmlns:xlink="http://www.w3.org/1999/xlink" x="0px" y="0px"
	 viewBox="0 0 958 155" style="enable-background:new 0 0 958 155;" xml:space="preserve">
<style type="text/css">
	.st0{clip-path:url(#SVGID_2_);fill:#1D1D1B;}
	.st1{fill:#1D1D1B;}
</style>
<g>
	<defs>
		<rect id="SVGID_1_" x="2" y="0.88" width="950.4" height="152.62"/>
	</defs>
	<clipPath id="SVGID_2_">
		<use xlink:href="#SVGID_1_"  style="overflow:visible;"/>
	</clipPath>
	<path class="st0" d="M86.75,43.85c-0.78-5.9-3.68-10.87-8.69-14.88c-5.02-4.01-10.81-6.01-17.39-6.01
		c-5.68,0-10.61,1.11-14.79,3.34c-4.18,2.23-7.55,5.24-10.11,9.03c-2.56,3.79-4.46,8.14-5.68,13.04
		c-1.23,4.91-1.84,10.09-1.84,15.54c0,5.24,0.61,10.23,1.84,14.96c1.22,4.74,3.15,9,5.77,12.79c2.62,3.79,5.99,6.77,10.11,8.94
		c4.12,2.17,9.03,3.26,14.71,3.26c7.8,0,14.01-2.42,18.64-7.27c4.62-4.85,7.44-11.34,8.44-19.47h25.41
		c-0.67,7.35-2.4,14.04-5.18,20.06c-2.79,6.02-6.49,11.17-11.11,15.47c-4.63,4.29-10,7.58-16.13,9.86
		c-6.13,2.28-12.82,3.42-20.06,3.42c-9.03,0-17.19-1.59-24.49-4.76c-7.3-3.18-13.48-7.58-18.55-13.21
		c-5.07-5.62-8.94-12.23-11.62-19.81C3.34,80.57,2,72.49,2,63.9c0-8.8,1.34-17.05,4.01-24.74c2.68-7.68,6.55-14.4,11.62-20.14
		c5.07-5.74,11.25-10.2,18.55-13.37c7.3-3.18,15.46-4.76,24.49-4.76c6.57,0,12.81,0.95,18.72,2.84c5.9,1.9,11.17,4.68,15.8,8.36
		c4.62,3.68,8.41,8.19,11.37,13.54c2.95,5.35,4.82,11.43,5.6,18.22H86.75z M177.35,80.79c-1.34,1.11-3.09,1.95-5.27,2.51
		c-2.17,0.56-5.1,1.12-8.77,1.67c-2.34,0.33-4.24,0.61-5.68,0.83c-4.46,0.89-7.91,2.26-10.37,4.1c-2.45,1.84-3.68,4.71-3.68,8.61
		c0,4.12,1.31,6.99,3.93,8.61c2.62,1.61,6.16,2.42,10.61,2.42c4.34,0,7.85-0.73,10.53-2.17c2.67-1.45,4.62-3.26,5.85-5.44
		c1.23-2.17,2.01-4.29,2.34-6.35c0.33-2.06,0.5-4.04,0.5-5.93V80.79z M122.52,63.24c0.34-5.35,1.67-9.89,4.01-13.62
		c2.34-3.73,5.43-6.74,9.28-9.02c3.84-2.28,8.08-3.9,12.7-4.85c4.62-0.95,9.5-1.42,14.63-1.42c4.79,0,9.39,0.33,13.79,1
		c4.4,0.67,8.41,1.9,12.04,3.68c3.62,1.79,6.54,4.32,8.77,7.61c2.23,3.29,3.35,7.38,3.35,12.28v44.97c0,4.35,0.25,8.22,0.75,11.62
		c0.5,3.4,1.25,5.93,2.25,7.6h-24.07c-1.01-3.12-1.57-5.9-1.67-8.36c-3.57,3.68-7.89,6.38-12.96,8.11
		c-5.07,1.73-10.45,2.59-16.13,2.59c-8.69,0-15.77-2.2-21.23-6.6c-5.46-4.4-8.19-10.84-8.19-19.31c0-4.68,0.81-8.64,2.42-11.87
		c1.62-3.23,3.79-5.79,6.52-7.69c2.73-1.89,5.77-3.34,9.11-4.35c3.34-1,7.13-1.78,11.37-2.34c2.23-0.33,4.79-0.67,7.69-1.01
		c7.13-0.89,12.31-1.95,15.55-3.18c3.23-1.23,4.85-3.62,4.85-7.19c0-4.68-1.34-7.8-4.01-9.36c-2.67-1.56-6.46-2.34-11.37-2.34
		c-4.68,0-8.36,1.03-11.03,3.09c-2.68,2.07-4.24,5.38-4.68,9.95H122.52z M214.46,36.66h22.57v11.03h0.34
		c2.78-4.45,6.41-7.8,10.86-10.03c4.46-2.23,9.42-3.34,14.88-3.34c6.57,0,12.34,1.23,17.3,3.68c4.96,2.45,9.05,5.82,12.28,10.11
		c3.23,4.29,5.66,9.25,7.27,14.88c1.61,5.63,2.42,11.56,2.42,17.8c0,5.91-0.81,11.53-2.42,16.88c-1.62,5.35-4.04,10.11-7.27,14.29
		c-3.23,4.18-7.22,7.47-11.95,9.86c-4.74,2.4-10.17,3.59-16.3,3.59c-5.24,0-10.17-1.11-14.79-3.34c-4.63-2.23-8.33-5.46-11.11-9.7
		h-0.34v41.12h-23.74V36.66z M267.7,105.27c2.62-1.5,4.74-3.51,6.35-6.01c1.62-2.51,2.78-5.38,3.51-8.61
		c0.72-3.23,1.08-6.74,1.08-10.53c0-3.56-0.39-6.99-1.17-10.28c-0.79-3.29-1.98-6.27-3.6-8.94c-1.62-2.68-3.76-4.79-6.44-6.35
		c-2.68-1.56-5.85-2.34-9.53-2.34s-6.85,0.75-9.53,2.25c-2.68,1.51-4.82,3.57-6.44,6.18c-1.62,2.62-2.79,5.58-3.51,8.86
		c-0.72,3.29-1.08,6.83-1.08,10.61c0,3.68,0.36,7.13,1.08,10.36c0.73,3.23,1.92,6.13,3.59,8.69c1.67,2.57,3.85,4.6,6.52,6.1
		c2.68,1.5,5.85,2.26,9.53,2.26C261.87,107.53,265.08,106.78,267.7,105.27 M321.1,46.77c8.13-8.3,18.94-12.45,32.43-12.45
		c13.59,0,24.46,4.15,32.6,12.45c8.13,8.31,12.2,19.36,12.2,33.18c0,13.71-4.07,24.71-12.2,33.01c-8.14,8.3-19,12.45-32.6,12.45
		c-13.49,0-24.3-4.15-32.43-12.45c-8.14-8.3-12.2-19.31-12.2-33.01C308.9,66.13,312.97,55.07,321.1,46.77 M333.72,90.32
		c0.72,3.23,1.89,6.16,3.51,8.77c1.62,2.62,3.79,4.68,6.52,6.18c2.73,1.5,5.99,2.26,9.78,2.26c3.9,0,7.21-0.75,9.94-2.26
		c2.73-1.5,4.9-3.56,6.52-6.18c1.62-2.62,2.79-5.54,3.51-8.77c0.72-3.23,1.09-6.69,1.09-10.37s-0.37-7.16-1.09-10.45
		c-0.73-3.28-1.9-6.24-3.51-8.86c-1.62-2.62-3.79-4.68-6.52-6.18c-2.73-1.51-6.05-2.25-9.94-2.25c-3.79,0-7.05,0.75-9.78,2.25
		c-2.74,1.51-4.91,3.57-6.52,6.18c-1.62,2.62-2.79,5.58-3.51,8.86c-0.72,3.29-1.09,6.77-1.09,10.45S333,87.09,333.72,90.32
		 M470.37,112.05h-0.34c-2.67,4.57-6.27,7.94-10.78,10.11c-4.51,2.17-9.67,3.26-15.46,3.26c-6.24,0-11.82-1.25-16.71-3.76
		c-4.91-2.51-9-5.94-12.29-10.28c-3.29-4.34-5.74-9.27-7.35-14.79c-1.62-5.52-2.42-11.34-2.42-17.47c0-5.9,0.81-11.54,2.42-16.89
		c1.62-5.35,4.04-10.14,7.27-14.37c3.23-4.23,7.27-7.55,12.12-9.95c4.85-2.39,10.33-3.59,16.47-3.59c5.23,0,10.16,1.11,14.79,3.34
		c4.62,2.23,8.22,5.41,10.78,9.53h0.33V3.73h23.74v119.35h-22.57V112.05z M468.95,69.09c-0.73-3.23-1.87-6.12-3.43-8.69
		c-1.56-2.56-3.68-4.57-6.35-6.02c-2.68-1.45-5.85-2.17-9.53-2.17c-3.79,0-7.02,0.72-9.7,2.17c-2.67,1.45-4.85,3.48-6.52,6.1
		c-1.67,2.62-2.87,5.57-3.59,8.86c-0.73,3.29-1.08,6.77-1.08,10.45c0,3.45,0.42,6.83,1.25,10.11c0.84,3.29,2.12,6.27,3.84,8.95
		c1.73,2.67,3.9,4.79,6.52,6.35c2.62,1.56,5.71,2.34,9.28,2.34c3.79,0,6.99-0.75,9.61-2.26c2.62-1.5,4.73-3.56,6.35-6.18
		c1.61-2.62,2.76-5.57,3.43-8.86c0.67-3.28,1-6.82,1-10.61C470.04,75.83,469.68,72.32,468.95,69.09 M515.34,46.77
		c8.13-8.3,18.94-12.45,32.43-12.45c13.59,0,24.46,4.15,32.59,12.45c8.14,8.31,12.2,19.36,12.2,33.18c0,13.71-4.07,24.71-12.2,33.01
		c-8.14,8.3-19,12.45-32.59,12.45c-13.49,0-24.3-4.15-32.43-12.45c-8.13-8.3-12.2-19.31-12.2-33.01
		C503.14,66.13,507.2,55.07,515.34,46.77 M527.96,90.32c0.72,3.23,1.89,6.16,3.51,8.77c1.61,2.62,3.78,4.68,6.52,6.18
		c2.73,1.5,5.99,2.26,9.78,2.26c3.9,0,7.21-0.75,9.94-2.26c2.73-1.5,4.9-3.56,6.52-6.18c1.62-2.62,2.79-5.54,3.51-8.77
		c0.73-3.23,1.09-6.69,1.09-10.37s-0.36-7.16-1.09-10.45c-0.72-3.28-1.9-6.24-3.51-8.86c-1.62-2.62-3.79-4.68-6.52-6.18
		c-2.73-1.51-6.05-2.25-9.94-2.25c-3.79,0-7.05,0.75-9.78,2.25c-2.73,1.51-4.91,3.57-6.52,6.18c-1.62,2.62-2.79,5.58-3.51,8.86
		c-0.72,3.29-1.09,6.77-1.09,10.45S527.23,87.09,527.96,90.32 M602.93,36.66h22.57v11.03h0.33c2.78-4.45,6.4-7.8,10.87-10.03
		c4.45-2.23,9.42-3.34,14.88-3.34c6.57,0,12.34,1.23,17.3,3.68c4.96,2.45,9.05,5.82,12.28,10.11c3.23,4.29,5.66,9.25,7.27,14.88
		c1.62,5.63,2.42,11.56,2.42,17.8c0,5.91-0.81,11.53-2.42,16.88c-1.62,5.35-4.04,10.11-7.27,14.29c-3.23,4.18-7.22,7.47-11.95,9.86
		c-4.74,2.4-10.17,3.59-16.3,3.59c-5.24,0-10.17-1.11-14.8-3.34c-4.63-2.23-8.33-5.46-11.11-9.7h-0.33v41.12h-23.74V36.66z
		 M656.17,105.27c2.62-1.5,4.73-3.51,6.35-6.01c1.62-2.51,2.79-5.38,3.51-8.61c0.72-3.23,1.09-6.74,1.09-10.53
		c0-3.56-0.39-6.99-1.17-10.28c-0.78-3.29-1.98-6.27-3.59-8.94c-1.62-2.68-3.76-4.79-6.44-6.35c-2.68-1.56-5.85-2.34-9.53-2.34
		c-3.68,0-6.85,0.75-9.53,2.25c-2.68,1.51-4.82,3.57-6.44,6.18c-1.62,2.62-2.79,5.58-3.51,8.86c-0.73,3.29-1.08,6.83-1.08,10.61
		c0,3.68,0.36,7.13,1.08,10.36c0.72,3.23,1.92,6.13,3.59,8.69c1.67,2.57,3.85,4.6,6.52,6.1c2.68,1.5,5.85,2.26,9.53,2.26
		C650.35,107.53,653.55,106.78,656.17,105.27 M719.61,85.63c0.33,7.47,2.28,12.98,5.85,16.55c3.57,3.57,8.69,5.35,15.38,5.35
		c4.57,0,8.64-1.14,12.2-3.43c3.57-2.28,5.74-4.88,6.52-7.78h20.9c-3.24,9.92-8.28,17.25-15.13,21.99
		c-6.85,4.74-15.29,7.1-25.32,7.1c-6.69,0-12.76-1.09-18.22-3.26c-5.46-2.17-10.11-5.29-13.96-9.36c-3.85-4.07-6.8-8.92-8.86-14.54
		c-2.07-5.62-3.09-11.73-3.09-18.3c0-6.46,1.06-12.48,3.18-18.06c2.12-5.57,5.12-10.42,9.02-14.54c3.9-4.12,8.58-7.33,14.04-9.61
		c5.46-2.28,11.42-3.43,17.89-3.43c6.79,0,12.84,1.25,18.14,3.76c5.29,2.51,9.69,5.93,13.2,10.28c3.51,4.35,6.18,9.36,8.02,15.04
		c1.84,5.68,2.76,11.7,2.76,18.06c0,0.44-0.06,1.12-0.17,2.01v2.17H719.61z M758.22,70.59c-1.11-6.24-3.15-10.87-6.1-13.87
		c-2.96-3.01-7.22-4.51-12.79-4.51c-3.57,0-6.6,0.61-9.11,1.84c-2.51,1.23-4.54,2.79-6.1,4.68c-1.56,1.9-2.68,3.87-3.35,5.93
		c-0.67,2.06-1.06,4.04-1.17,5.93H758.22z M790.98,36.66h22.57v16.05h0.34c2.11-5.35,5.79-9.75,11.03-13.21
		c5.23-3.45,10.75-5.18,16.55-5.18c1.78,0,3.51,0.28,5.18,0.83v22.06c-1-0.22-2.31-0.42-3.93-0.58c-1.62-0.17-3.15-0.25-4.6-0.25
		c-8.14,0-14.07,2.54-17.8,7.61c-3.73,5.07-5.6,11.78-5.6,20.14v38.95h-23.74V36.66z M904.81,80.79c-1.34,1.11-3.09,1.95-5.27,2.51
		c-2.17,0.56-5.1,1.12-8.77,1.67c-2.34,0.33-4.24,0.61-5.68,0.83c-4.46,0.89-7.91,2.26-10.36,4.1c-2.45,1.84-3.68,4.71-3.68,8.61
		c0,4.12,1.31,6.99,3.93,8.61c2.62,1.61,6.16,2.42,10.61,2.42c4.35,0,7.86-0.73,10.53-2.17c2.67-1.45,4.62-3.26,5.85-5.44
		c1.23-2.17,2.01-4.29,2.34-6.35c0.34-2.06,0.5-4.04,0.5-5.93V80.79z M849.98,63.24c0.33-5.35,1.67-9.89,4.01-13.62
		c2.34-3.73,5.43-6.74,9.28-9.02c3.84-2.28,8.08-3.9,12.7-4.85c4.62-0.95,9.5-1.42,14.63-1.42c4.79,0,9.39,0.33,13.79,1
		c4.4,0.67,8.41,1.9,12.04,3.68c3.62,1.79,6.55,4.32,8.78,7.61c2.23,3.29,3.34,7.38,3.34,12.28v44.97c0,4.35,0.25,8.22,0.75,11.62
		c0.5,3.4,1.25,5.93,2.25,7.6h-24.07c-1-3.12-1.56-5.9-1.67-8.36c-3.57,3.68-7.89,6.38-12.96,8.11c-5.07,1.73-10.45,2.59-16.13,2.59
		c-8.69,0-15.77-2.2-21.23-6.6c-5.46-4.4-8.19-10.84-8.19-19.31c0-4.68,0.8-8.64,2.42-11.87c1.61-3.23,3.78-5.79,6.52-7.69
		c2.73-1.89,5.77-3.34,9.11-4.35c3.34-1,7.13-1.78,11.37-2.34c2.23-0.33,4.79-0.67,7.69-1.01c7.13-0.89,12.31-1.95,15.54-3.18
		c3.23-1.23,4.85-3.62,4.85-7.19c0-4.68-1.34-7.8-4.01-9.36c-2.67-1.56-6.46-2.34-11.37-2.34c-4.68,0-8.36,1.03-11.03,3.09
		c-2.67,2.07-4.24,5.38-4.68,9.95H849.98z"/>
</g>
<rect x="941.54" y="110.16" class="st1" width="14.85" height="14.85"/>
<rect x="503.67" y="6.4" class="st1" width="14.86" height="14.85"/>
</svg>
