<svg xmlns:xlink="http://www.w3.org/1999/xlink" xmlns="http://www.w3.org/2000/svg" version="1.1" class="logo-cotto" id="Livello_1" viewBox="0 0 955.7 177.6" xml:space="preserve" width="955.7"  height="177.6" >
						<style type="text/css">
							.st0 {
								fill: #FFFFFF;
							}

							.st1 {
								fill: #B9BABB;
							}
						</style>
						<g>
											<polygon class="st0" points="221.3,14.1 293.9,14.1 293.9,26.6 264.4,26.6 264.4,112.1 250.7,112.1 250.7,26.6 221.3,26.6 	" fill="#FFFFFF"></polygon>
											<polygon class="st0" points="312,14.1 384.6,14.1 384.6,26.6 355.2,26.6 355.2,112.1 341.5,112.1 341.5,26.6 312,26.6 	" fill="#FFFFFF"></polygon>
											<polygon class="st0" points="797.8,14.1 870.3,14.1 870.3,26.6 840.9,26.6 840.9,112.1 827.2,112.1 827.2,26.6 797.8,26.6 	" fill="#FFFFFF"></polygon>
											<polygon class="st0" points="954.3,14.1 954.3,26.6 907.2,26.6 907.2,56.4 946.2,56.4 946.2,68.9 907.2,68.9 907.2,99.4
								955.7,99.4 955.7,112.1 893.5,112.1 893.5,14.1 	" fill="#FFFFFF"></polygon>
											<path class="st0" d="M137.9,152.5c0-0.4,0.3-0.7,0.7-0.7h14.8c0.4,0,0.7,0.3,0.7,0.7v3c0,0.4-0.3,0.7-0.7,0.7h-10.8v6h9
								c0.4,0,0.7,0.3,0.7,0.7v3c0,0.4-0.3,0.7-0.7,0.7h-9v6.4h10.8c0.4,0,0.7,0.3,0.7,0.7v3c0,0.4-0.3,0.7-0.7,0.7h-14.8
								c-0.4,0-0.7-0.3-0.7-0.7V152.5z" fill="#FFFFFF"></path>
											<path class="st0" d="M182.8,164.2l-7.3-11.4c-0.3-0.5,0-1,0.6-1h4.2c0.3,0,0.5,0.2,0.6,0.3l4.7,7.7h0l4.7-7.7
								c0.1-0.1,0.3-0.3,0.6-0.3h4.2c0.6,0,0.9,0.5,0.6,1l-7.3,11.4l7.6,12c0.3,0.5,0,1-0.6,1h-3.9c-0.3,0-0.5-0.2-0.6-0.3l-5.2-8.3h-0.1
								l-5.1,8.3c-0.1,0.1-0.3,0.3-0.6,0.3h-3.9c-0.7,0-0.9-0.5-0.7-1L182.8,164.2z" fill="#FFFFFF"></path>
											<path class="st0" d="M229.6,151.4c3.7,0,6.3,1.2,8.8,3.4c0.3,0.3,0.3,0.7,0,1l-2.2,2.3c-0.3,0.3-0.6,0.3-0.9,0
								c-1.5-1.3-3.6-2.1-5.6-2.1c-4.7,0-8.1,3.9-8.1,8.5c0,4.5,3.5,8.4,8.2,8.4c2.2,0,4-0.8,5.6-2.1c0.3-0.3,0.7-0.2,0.9,0l2.3,2.3
								c0.3,0.3,0.2,0.7,0,1c-2.5,2.4-5.6,3.5-8.8,3.5c-7.3,0-13.1-5.8-13.1-13.1S222.3,151.4,229.6,151.4z" fill="#FFFFFF"></path>
											<path class="st0" d="M261.4,152.5c0-0.4,0.3-0.7,0.7-0.7h3.3c0.4,0,0.7,0.3,0.7,0.7v20.4h9.3c0.4,0,0.7,0.3,0.7,0.7v3
								c0,0.4-0.3,0.7-0.7,0.7h-13.3c-0.4,0-0.7-0.3-0.7-0.7V152.5z" fill="#FFFFFF"></path>
											<path class="st0" d="M297.3,152.5c0-0.4,0.3-0.7,0.7-0.7h3.5c0.4,0,0.7,0.3,0.7,0.7v14.9c0,3.1,2.1,5.5,5.3,5.5
								c3.2,0,5.3-2.4,5.3-5.5v-14.9c0-0.4,0.3-0.7,0.7-0.7h3.5c0.4,0,0.7,0.3,0.7,0.7v15.1c0,5.5-4.4,10-10.2,10c-5.7,0-10.1-4.5-10.1-10
								V152.5z" fill="#FFFFFF"></path>
											<path class="st0" d="M340.5,173.7l1.3-2.3c0.3-0.5,0.9-0.5,1.2-0.3c0.2,0.1,3.1,2.3,5.5,2.3c1.9,0,3.3-1.2,3.3-2.8
								c0-1.9-1.6-3.1-4.6-4.4c-3.4-1.4-6.8-3.6-6.8-7.9c0-3.2,2.4-7,8.2-7c3.7,0,6.6,1.9,7.3,2.4c0.4,0.2,0.5,0.8,0.2,1.2l-1.4,2.1
								c-0.3,0.4-0.8,0.7-1.3,0.4c-0.3-0.2-3.1-2-5.1-2c-2.1,0-3.2,1.4-3.2,2.5c0,1.7,1.3,2.9,4.3,4.1c3.5,1.4,7.6,3.5,7.6,8.2
								c0,3.7-3.2,7.2-8.4,7.2c-4.6,0-7.3-2.1-8-2.8C340.3,174.5,340.2,174.3,340.5,173.7z" fill="#FFFFFF"></path>
											<path class="st0" d="M379.9,152.5c0-0.4,0.3-0.7,0.7-0.7h3.4c0.4,0,0.7,0.3,0.7,0.7v24.1c0,0.4-0.3,0.7-0.7,0.7h-3.4
								c-0.4,0-0.7-0.3-0.7-0.7V152.5z" fill="#FFFFFF"></path>
											<path class="st0" d="M406.2,152.7c-0.2-0.5,0.1-0.9,0.6-0.9h3.7c0.3,0,0.5,0.2,0.6,0.4l7,15.6h0.3l7-15.6c0.1-0.2,0.3-0.4,0.6-0.4
								h3.7c0.5,0,0.8,0.5,0.6,0.9L419,177.2c-0.1,0.2-0.3,0.4-0.6,0.4h-0.4c-0.3,0-0.5-0.2-0.6-0.4L406.2,152.7z" fill="#FFFFFF"></path>
											<path class="st0" d="M451.8,152.5c0-0.4,0.3-0.7,0.7-0.7h14.8c0.4,0,0.7,0.3,0.7,0.7v3c0,0.4-0.3,0.7-0.7,0.7h-10.8v6h9
								c0.4,0,0.7,0.3,0.7,0.7v3c0,0.4-0.3,0.7-0.7,0.7h-9v6.4h10.8c0.4,0,0.7,0.3,0.7,0.7v3c0,0.4-0.3,0.7-0.7,0.7h-14.8
								c-0.4,0-0.7-0.3-0.7-0.7V152.5z" fill="#FFFFFF"></path>
											<path class="st0" d="M515.4,173.7l1.3-2.3c0.3-0.5,0.9-0.5,1.2-0.3c0.2,0.1,3.1,2.3,5.5,2.3c1.9,0,3.3-1.2,3.3-2.8
								c0-1.9-1.6-3.1-4.6-4.4c-3.4-1.4-6.8-3.6-6.8-7.9c0-3.2,2.4-7,8.2-7c3.7,0,6.6,1.9,7.3,2.4c0.4,0.2,0.5,0.8,0.2,1.2l-1.4,2.1
								c-0.3,0.4-0.8,0.7-1.3,0.4c-0.3-0.2-3.1-2-5.1-2c-2.1,0-3.2,1.4-3.2,2.5c0,1.7,1.3,2.9,4.3,4.1c3.5,1.4,7.6,3.5,7.6,8.2
								c0,3.7-3.2,7.2-8.4,7.2c-4.6,0-7.3-2.1-8-2.8C515.2,174.5,515.1,174.3,515.4,173.7z" fill="#FFFFFF"></path>
											<path class="st0" d="M554.4,152.5c0-0.4,0.3-0.7,0.7-0.7h3.5c0.4,0,0.7,0.3,0.7,0.7v14.9c0,3.1,2.1,5.5,5.3,5.5s5.3-2.4,5.3-5.5
								v-14.9c0-0.4,0.3-0.7,0.7-0.7h3.5c0.4,0,0.7,0.3,0.7,0.7v15.1c0,5.5-4.4,10-10.2,10c-5.7,0-10.1-4.5-10.1-10V152.5z" fill="#FFFFFF"></path>
											<path class="st0" d="M599.1,152.5c0-0.4,0.3-0.7,0.7-0.7h10.4c4.4,0,7.9,3.5,7.9,7.8c0,3.3-2.2,6.1-5.4,7.4l5,9.2
								c0.3,0.5,0,1.1-0.6,1.1h-3.8c-0.3,0-0.5-0.2-0.6-0.3l-4.8-9.6h-4v9.3c0,0.4-0.3,0.7-0.7,0.7h-3.3c-0.4,0-0.7-0.3-0.7-0.7V152.5z
								 M609.8,163.4c1.9,0,3.6-1.7,3.6-3.7c0-1.9-1.7-3.5-3.6-3.5h-5.9v7.2H609.8z" fill="#FFFFFF"></path>
											<path class="st0" d="M641.6,152.5c0-0.4,0.3-0.7,0.7-0.7h14.8c0.4,0,0.7,0.3,0.7,0.7v3c0,0.4-0.3,0.7-0.7,0.7h-10.8v6.8h9
								c0.4,0,0.7,0.3,0.7,0.7v3c0,0.4-0.3,0.7-0.7,0.7h-9v9.2c0,0.4-0.3,0.7-0.7,0.7h-3.3c-0.4,0-0.7-0.3-0.7-0.7V152.5z" fill="#FFFFFF"></path>
											<path class="st0" d="M676.1,176.3l11.3-24.5c0.1-0.2,0.3-0.4,0.6-0.4h0.4c0.4,0,0.5,0.2,0.6,0.4l11.2,24.5c0.2,0.5-0.1,0.9-0.6,0.9
								h-3.2c-0.5,0-0.8-0.2-1.1-0.7l-1.8-3.9h-10.9l-1.8,3.9c-0.1,0.4-0.5,0.7-1.1,0.7h-3.2C676.2,177.3,675.9,176.8,676.1,176.3z
								 M691.8,168.6l-3.6-8h-0.1l-3.6,8H691.8z" fill="#FFFFFF"></path>
											<path class="st0" d="M732.8,151.4c3.7,0,6.3,1.2,8.8,3.4c0.3,0.3,0.3,0.7,0,1l-2.2,2.3c-0.3,0.3-0.6,0.3-0.9,0
								c-1.5-1.3-3.6-2.1-5.6-2.1c-4.7,0-8.1,3.9-8.1,8.5c0,4.5,3.5,8.4,8.2,8.4c2.2,0,4-0.8,5.6-2.1c0.3-0.3,0.7-0.2,0.9,0l2.3,2.3
								c0.3,0.3,0.2,0.7,0,1c-2.5,2.4-5.6,3.5-8.8,3.5c-7.3,0-13.1-5.8-13.1-13.1S725.6,151.4,732.8,151.4z" fill="#FFFFFF"></path>
											<path class="st0" d="M764.7,152.5c0-0.4,0.3-0.7,0.7-0.7h14.8c0.4,0,0.7,0.3,0.7,0.7v3c0,0.4-0.3,0.7-0.7,0.7h-10.8v6h9
								c0.4,0,0.7,0.3,0.7,0.7v3c0,0.4-0.3,0.7-0.7,0.7h-9v6.4h10.8c0.4,0,0.7,0.3,0.7,0.7v3c0,0.4-0.3,0.7-0.7,0.7h-14.8
								c-0.4,0-0.7-0.3-0.7-0.7V152.5z" fill="#FFFFFF"></path>
											<path class="st0" d="M802.8,173.7l1.3-2.3c0.3-0.5,0.9-0.5,1.2-0.3c0.2,0.1,3.1,2.3,5.5,2.3c1.9,0,3.3-1.2,3.3-2.8
								c0-1.9-1.6-3.1-4.6-4.4c-3.4-1.4-6.8-3.6-6.8-7.9c0-3.2,2.4-7,8.2-7c3.7,0,6.6,1.9,7.3,2.4c0.4,0.2,0.5,0.8,0.2,1.2l-1.4,2.1
								c-0.3,0.4-0.8,0.7-1.3,0.4c-0.3-0.2-3.1-2-5.1-2c-2.1,0-3.2,1.4-3.2,2.5c0,1.7,1.3,2.9,4.3,4.1c3.5,1.4,7.6,3.5,7.6,8.2
								c0,3.7-3.2,7.2-8.4,7.2c-4.6,0-7.3-2.1-8-2.8C802.6,174.5,802.4,174.3,802.8,173.7z" fill="#FFFFFF"></path>
											<path class="st0" d="M91.2,92.4c-8.5,12.2-22.5,21.4-40.7,21.4C22.5,113.7,0,92,0,63.1s22.2-50.6,49.8-50.6c19.3,0,33,9.3,40.4,20
								l-10.1,9.3c-6.2-8.9-16-15.8-30.2-15.8c-20.4,0-35.7,16.1-35.7,37.2c0,21.1,15.7,37.2,36.4,37.2c14.3,0,24-6.9,30.7-16.5L91.2,92.4
								z" fill="#FFFFFF"></path>
											<path class="st0" d="M158.2,100.3c20,0,36.4-15.7,36.4-37.2c0-21.5-16.4-37.2-36.4-37.2c-20,0-36.4,15.7-36.4,37.2
								C121.8,84.6,138.2,100.3,158.2,100.3 M158.2,12.4c28.3,0,50.5,21.8,50.5,50.6s-22.2,50.6-50.5,50.6c-28.3,0-50.5-21.8-50.5-50.6
								S129.9,12.4,158.2,12.4" fill="#FFFFFF"></path>
											<path class="st0" d="M447.7,100.3c20,0,36.4-15.7,36.4-37.2c0-21.5-16.4-37.2-36.4-37.2c-20,0-36.4,15.7-36.4,37.2
								C411.4,84.6,427.8,100.3,447.7,100.3 M447.7,12.4c28.3,0,50.5,21.8,50.5,50.6s-22.2,50.6-50.5,50.6c-28.3,0-50.5-21.8-50.5-50.6
								S419.4,12.4,447.7,12.4" fill="#FFFFFF"></path>
											<path class="st0" d="M554.1,99.5c20,0,36.4-15.1,36.4-36.5c0-21.1-16.2-36.4-36.2-36.4h-19.3v72.8H554.1z M521.2,14.2h34.1
								c28.6,0,49.4,21.6,49.4,48.8c0,27.7-20.8,49.1-49.4,49.1h-34.1V14.2z" fill="#FFFFFF"></path>
											<path class="st1" d="M624.8,31.9c2.8-10.5,4.5-21.4,4.8-31.9h25.5c-3,14-15.4,41.5-24.4,55.1c-1.4,2.2-2.9,4.3-4.3,6.3h-12.7
								C618.1,52.9,622,42.7,624.8,31.9L624.8,31.9z" fill="#B9BABB"></path>
											<path class="st0" d="M663.5,26.6h34.2V14.1h-30.2C666.5,17.8,665.2,22.1,663.5,26.6 M699.1,112.1V99.4h-48.4V68.9h39V56.4h-39
								c-4.4,9.1-9.1,17.6-13.2,23.8c-0.2,0.3-0.4,0.5-0.6,0.8v31H699.1z" fill="#FFFFFF"></path>
											<path class="st0" d="M767,36.6c-5.4-8.3-12.9-11.4-20.3-11.4c-10.7,0-17.6,5.3-17.6,13c0,9.9,9.6,13,22.6,19
								c15.8,6.9,27.5,12.8,27.5,29.6c0,14-11.5,26.8-33.2,26.8c-14.3,0-26.8-6.5-33.4-18.9l11.5-7.8c5,9.4,12.9,13.7,22.3,13.7
								c11.7,0,18.9-6.8,18.9-13.3c0-10.1-8.9-13-21.8-19c-13.3-6.2-28.3-11.1-28.3-29.7c0-14.4,13.3-26.2,31.8-26.2
								c11.1,0,24,4.6,30.7,16.8L767,36.6z" fill="#FFFFFF"></path>
						</g>
					</svg>