<?xml version="1.0" encoding="utf-8"?>
<!-- Generator: Adobe Illustrator 19.2.0, SVG Export Plug-In . SVG Version: 6.00 Build 0)  -->
<svg version="1.1" id="Layer_1" xmlns="http://www.w3.org/2000/svg" xmlns:xlink="http://www.w3.org/1999/xlink" x="0px" y="0px"
	 viewBox="0 0 234.8 81.5" style="enable-background:new 0 0 234.8 81.5;" xml:space="preserve">
<style type="text/css">
	.st0{fill:#FFFFFF;}
</style>
<path class="st0" d="M22.5,0.5c4.8,0,8.6,0.4,11.6,1.3c2.9,0.8,5.2,2.1,6.8,3.6c1.6,1.6,2.7,3.5,3.3,5.7c0.6,2.2,0.9,4.7,0.9,7.4
	c0,3.3-0.4,6.1-1.1,8.5c-0.7,2.4-2,4.4-3.8,5.9c-1.8,1.6-4.2,2.7-7.2,3.5c-3,0.8-6.8,1.1-11.4,1.1H0V0.5H22.5z M19.8,32.1
	c2.4,0,4.4-0.2,5.9-0.7c1.5-0.4,2.6-1.2,3.5-2.2c0.9-1,1.4-2.4,1.7-4.1c0.3-1.7,0.4-3.8,0.4-6.3c0-2.1-0.1-4-0.4-5.6
	c-0.3-1.6-0.8-2.9-1.6-4c-0.8-1.1-2-1.9-3.5-2.4C24.3,6.3,22.2,6,19.6,6h-5.8v26.1H19.8z"/>
<rect x="51.5" y="0.9" class="st0" width="13.1" height="36.7"/>
<path class="st0" d="M89.9,0.9h7.6v6.4h-7.6v19.9c0,1.5,0.3,2.5,0.9,3.1c0.6,0.6,1.9,0.9,3.8,0.9c0.5,0,1,0,1.5,0
	c0.5,0,1-0.1,1.4-0.1v6.5c-1.5,0-2.9,0-4.2,0.1c-1.4,0.1-2.8,0.1-4.3,0.1c-2.5,0-4.6-0.1-6.2-0.4c-1.6-0.2-2.9-0.7-3.7-1.5
	c-0.9-0.7-1.4-1.7-1.8-3c-0.3-1.2-0.5-2.8-0.5-4.6v-21h-6.7V0.9h6.7H89.9z"/>
<path class="st0" d="M114.8,0.9v5h0.2c1.3-1.8,3-3.2,4.9-4.3c1.9-1.1,4.2-1.6,7-1.6c0.4,0,0.8,0,1.2,0c0.4,0,0.8,0,1.2,0.1v9.1
	c-0.7-0.1-1.4-0.1-2.1-0.1c-0.7,0-1.4,0-2.1,0c-1.1,0-2.3,0.1-3.4,0.3c-1.1,0.2-2.2,0.6-3.1,1.1c-1,0.5-1.7,1.2-2.3,2
	c-0.6,0.8-0.9,1.9-0.9,3.1v22h-13.1V0.9H114.8z"/>
<path class="st0" d="M151.9,38.3c-4.8,0-8.5-0.6-11.2-1.7c-2.7-1.1-4.7-2.6-5.9-4.5c-1.3-1.9-2.1-3.9-2.3-6.3
	c-0.3-2.3-0.4-4.6-0.4-6.9c0-2.5,0.2-4.8,0.7-7.1c0.5-2.3,1.4-4.3,2.9-6.1c1.4-1.8,3.5-3.2,6.2-4.2c2.7-1,6.2-1.6,10.7-1.6
	c3.8,0,7,0.4,9.4,1.3c2.4,0.9,4.4,2.1,5.8,3.7c1.4,1.6,2.4,3.6,2.9,5.9c0.5,2.3,0.8,4.8,0.8,7.7v2.1h-26.1v2.9
	c0,1.1,0.1,2.1,0.3,3.2c0.2,1,0.6,1.9,1.1,2.7c0.5,0.8,1.2,1.4,2,1.9c0.8,0.5,1.9,0.7,3.1,0.7L151.9,38.3z M158.3,11.4
	c-0.2-1.1-0.5-2-1-2.7c-0.5-0.7-1.2-1.3-2-1.7c-0.9-0.4-2-0.6-3.3-0.6c-1.3,0-2.4,0.2-3.3,0.6c-0.9,0.4-1.6,1-2.1,1.7
	c-0.5,0.7-0.9,1.5-1.1,2.3c-0.2,0.9-0.3,1.7-0.3,2.6v1.4h13.5C158.6,13.7,158.5,12.5,158.3,11.4"/>
<rect x="64.9" y="44" class="st0" width="13.1" height="36.7"/>
<path class="st0" d="M102,44h7.6v6.4H102v19.8c0,1.5,0.3,2.5,0.9,3.1c0.6,0.6,1.9,0.9,3.8,0.9c0.5,0,1,0,1.5,0c0.5,0,1-0.1,1.4-0.1
	v6.5c-1.5,0-2.9,0-4.2,0.1c-1.4,0.1-2.8,0.1-4.3,0.1c-2.5,0-4.6-0.1-6.2-0.4c-1.6-0.2-2.9-0.7-3.7-1.5c-0.9-0.7-1.4-1.7-1.8-3
	c-0.3-1.2-0.5-2.8-0.5-4.6v-21h-6.7V44h6.7H102z"/>
<path class="st0" d="M132.2,43.1c3.9,0,7.1,0.3,9.5,0.8c2.4,0.5,4.3,1.3,5.6,2.3c1.3,1,2.2,2.2,2.7,3.6c0.5,1.4,0.7,2.9,0.7,4.5
	v19.3c0,1.7,0.1,3.1,0.3,4c0.2,1,0.7,2,1.3,3.1l-12.6,0c-0.4-0.6-0.8-1.2-1-1.9c-0.2-0.7-0.4-1.3-0.6-2H138
	c-1.5,1.9-3.3,3.2-5.3,3.7c-2,0.6-4.6,0.9-7.8,0.9c-2.3,0-4.2-0.3-5.8-0.8c-1.6-0.6-2.9-1.4-3.8-2.3c-1-1-1.7-2.1-2.1-3.4
	c-0.4-1.2-0.7-2.5-0.7-3.7c0-1.7,0.3-3.2,0.8-4.5c0.5-1.2,1.3-2.3,2.3-3.2c1-0.9,2.4-1.6,4-2.2c1.6-0.6,3.6-1.1,5.9-1.6l7.4-1.4
	c2-0.4,3.3-0.9,4.1-1.5c0.8-0.6,1.1-1.6,1.1-2.8c0-1.4-0.5-2.5-1.4-3.3c-0.9-0.8-2.5-1.2-4.7-1.2L132.2,43.1z M135.3,63.6
	c-1,0.3-1.9,0.5-2.8,0.6c-2.7,0.4-4.6,1.1-5.7,2c-1.1,1-1.7,2.2-1.7,3.9c0,1.4,0.4,2.6,1.1,3.6s2,1.5,3.8,1.5c0.9,0,1.8-0.1,2.8-0.3
	c1-0.2,1.8-0.5,2.6-1c0.8-0.5,1.4-1,2-1.8c0.5-0.7,0.8-1.6,0.8-2.6v-7.2C137.3,62.9,136.3,63.3,135.3,63.6"/>
<rect x="157.9" y="32" class="st0" width="13.1" height="48.7"/>
<rect x="178.2" y="44" class="st0" width="13.1" height="36.7"/>
<path class="st0" d="M214.6,43.1c3.9,0,7.1,0.3,9.5,0.8c2.4,0.5,4.3,1.3,5.6,2.3c1.3,1,2.2,2.2,2.7,3.6c0.5,1.4,0.7,2.9,0.7,4.5
	v19.3c0,1.7,0.1,3.1,0.3,4c0.2,1,0.7,2,1.3,3.1l-12.6,0c-0.4-0.6-0.8-1.2-1-1.9c-0.2-0.7-0.4-1.3-0.6-2h-0.2
	c-1.5,1.9-3.3,3.2-5.3,3.7c-2,0.6-4.6,0.9-7.8,0.9c-2.3,0-4.2-0.3-5.8-0.8c-1.6-0.6-2.9-1.4-3.8-2.3c-1-1-1.7-2.1-2.1-3.4
	c-0.4-1.2-0.7-2.5-0.7-3.7c0-1.7,0.3-3.2,0.8-4.5c0.5-1.2,1.3-2.3,2.3-3.2c1-0.9,2.4-1.6,4-2.2c1.6-0.6,3.6-1.1,5.9-1.6l7.4-1.4
	c2-0.4,3.3-0.9,4.1-1.5c0.8-0.6,1.1-1.6,1.1-2.8c0-1.4-0.5-2.5-1.4-3.3c-0.9-0.8-2.5-1.2-4.7-1.2L214.6,43.1z M217.7,63.6
	c-1,0.3-1.9,0.5-2.8,0.6c-2.7,0.4-4.6,1.1-5.7,2c-1.1,1-1.7,2.2-1.7,3.9c0,1.4,0.4,2.6,1.1,3.6c0.8,1,2,1.5,3.8,1.5
	c0.9,0,1.8-0.1,2.8-0.3c1-0.2,1.8-0.5,2.6-1c0.8-0.5,1.4-1,2-1.8c0.5-0.7,0.8-1.6,0.8-2.6v-7.2C219.7,62.9,218.8,63.3,217.7,63.6"/>
</svg>
