<?xml version="1.0" encoding="UTF-8" standalone="no"?>
<!DOCTYPE svg PUBLIC "-//W3C//DTD SVG 1.1//EN" "http://www.w3.org/Graphics/SVG/1.1/DTD/svg11.dtd">
<svg width="100%" height="100%" viewBox="0 0 1920 160" version="1.1" xmlns="http://www.w3.org/2000/svg" xmlns:xlink="http://www.w3.org/1999/xlink" xml:space="preserve" xmlns:serif="http://www.serif.com/" style="fill-rule:evenodd;clip-rule:evenodd;stroke-linejoin:round;stroke-miterlimit:2;">
    <g transform="matrix(1,0,0,1,0,-210)">
        <g id="energieker-logo-black-24" transform="matrix(1,0,0,0.740741,0,397.407)">
            <rect x="0" y="-253" width="1920" height="216" style="fill:none;"/>
            <g transform="matrix(1,0,0,1.35,0,-42.5928)">
                <path d="M0,-151.511L0,0L145.592,0L145.592,-25.103L27.761,-25.103L27.761,-66.367L137.42,-66.367L137.42,-90.861L27.761,-90.861L27.761,-126.406L140.279,-126.406L140.279,-151.511L0,-151.511Z" style="fill-rule:nonzero;"/>
            </g>
            <g transform="matrix(1,0,0,1.35,362.017,-247.133)">
                <path d="M0,151.511L-25.262,151.511L-132.909,37.831L-132.517,151.511L-159.477,151.511L-159.477,0L-133.187,0L-26.379,113.423L-26.962,0L0,0L0,151.511Z" style="fill-rule:nonzero;"/>
            </g>
            <g transform="matrix(1,0,0,1.35,564.558,-247.133)">
                <path d="M0,151.511L-145.592,151.511L-145.592,0L-5.312,0L-5.312,25.105L-117.831,25.105L-117.831,60.65L-8.169,60.65L-8.169,85.144L-117.831,85.144L-117.831,126.408L0,126.408L0,151.511Z" style="fill-rule:nonzero;"/>
            </g>
            <g transform="matrix(1,0,0,1.35,643.053,-136.324)">
                <path d="M0,-12.649L67.598,-12.649C79.831,-12.649 91.361,-13.353 97.99,-21.855C101.023,-25.502 102.526,-30.001 102.526,-35.322C102.526,-37.01 102.526,-42.142 99.352,-47.556L99.323,-47.604C94.546,-56.044 87.574,-57.588 75.561,-57.588L0,-57.588L0,-12.649ZM149.799,69.431L113.268,69.431L64.464,11.639L0.2,11.639L0.2,69.431L-27.764,69.431L-27.764,-82.08L74.133,-82.08C86.99,-82.08 91.684,-81.382 97.952,-79.71C118.704,-74.248 131.1,-57.959 131.1,-36.138C131.1,-25.028 127.783,-5.014 105.557,4.211C102.624,5.355 99.701,6.306 95.468,7.189L149.799,69.431Z" style="fill-rule:nonzero;"/>
            </g>
            <g transform="matrix(1,0,0,1.35,908.648,-251.818)">
                <path d="M0,158.249C-40.819,158.249 -62.24,137.217 -71.376,124.679C-76.883,117.342 -86.171,101.566 -86.171,78.818C-86.171,70.058 -84.554,52.919 -73.718,36.563C-70.623,31.917 -67.564,28.258 -63.788,24.69C-53.945,15.464 -32.109,0 3.672,0C21.913,0 38.698,3.917 53.559,11.644C61.965,15.929 68.663,20.945 74.009,26.963C77.315,30.469 78.978,32.371 83.069,39.899L85.212,43.844L58.35,52.068L56.06,48.762C54.712,46.754 52.863,44.005 49.537,40.836C43.048,34.92 28.557,24.901 5.103,24.901C-0.097,24.901 -10.442,25.459 -21.269,29.194C-43.961,37.087 -56.982,54.877 -56.982,78.003C-56.982,90.532 -52.188,104.355 -44.769,113.22C-29.109,132.277 -3.108,133.757 4.488,133.757C20.723,133.757 43.604,127.318 54.655,109.174C57.383,104.579 58.424,100.947 59.234,96.169L-3.669,96.169L-3.669,71.677L84.331,71.677L84.331,154.982L59.223,154.982L59.223,139.925C58.015,140.939 56.744,141.934 55.411,142.874C50.25,146.488 31.033,158.249 0,158.249" style="fill-rule:nonzero;"/>
            </g>
            <g transform="matrix(-1,0,0,1.35,2135.24,-266.695)">
                <rect x="1053.54" y="14.491" width="28.167" height="151.511"/>
            </g>
            <g transform="matrix(1,0,0,1.35,1691.71,-247.133)">
                <path d="M0,151.511L-145.592,151.511L-145.592,0L-5.309,0L-5.309,25.105L-117.831,25.105L-117.831,60.65L-8.169,60.65L-8.169,85.144L-117.831,85.144L-117.831,126.408L0,126.408L0,151.511Z" style="fill-rule:nonzero;"/>
            </g>
            <g transform="matrix(1,0,0,1.35,1770.2,-136.324)">
                <path d="M0,-12.649L67.598,-12.649C79.831,-12.649 91.361,-13.353 97.992,-21.855C101.026,-25.499 102.526,-30 102.526,-35.322C102.526,-37.01 102.526,-42.142 99.352,-47.556L99.323,-47.604C94.546,-56.044 87.574,-57.588 75.564,-57.588L0,-57.588L0,-12.649ZM149.799,69.431L113.268,69.431L64.464,11.639L0.2,11.639L0.2,69.431L-27.761,69.431L-27.761,-82.08L74.133,-82.08C86.99,-82.08 91.684,-81.382 97.952,-79.71C118.704,-74.248 131.1,-57.959 131.1,-36.138C131.1,-25.028 127.783,-5.014 105.557,4.211C102.624,5.355 99.701,6.306 95.468,7.189L149.799,69.431Z" style="fill-rule:nonzero;"/>
            </g>
            <g transform="matrix(1,0,0,1.35,1171.85,-87.868)">
                <path d="M0,8.434L0,-25.103L-27.759,5.999L-27.759,33.537L117.83,33.537L117.83,8.434L0,8.434Z" style="fill:rgb(0,170,79);fill-rule:nonzero;"/>
            </g>
            <g transform="matrix(-1,0,0,1.35,1178.74,-132.189)">
                <path d="M-102.769,-24.493L-21.863,-24.493L0,0L-102.769,0L-102.769,-24.493Z" style="fill:rgb(0,170,79);fill-rule:nonzero;"/>
            </g>
            <g transform="matrix(-1,0,0,1.35,1232.33,-213.241)">
                <path d="M-52.041,-25.105L-22.404,-25.105L0,0L-52.041,0L-52.041,-25.105Z" style="fill:rgb(0,170,79);fill-rule:nonzero;"/>
            </g>
            <g transform="matrix(1,0,0,1.35,1144.09,-247.132)">
                <path d="M0,87.931L0,0L78.477,0L0,87.931Z" style="fill:rgb(0,170,79);fill-rule:nonzero;"/>
            </g>
            <g transform="matrix(-1,0,0,1.35,2709.86,-266.695)">
                <rect x="1340.85" y="14.491" width="28.168" height="151.511" style="fill:rgb(0,170,79);"/>
            </g>
            <g transform="matrix(1,0,0,1.35,1417.36,-144.539)">
                <path d="M0,-0.479L81.682,-75.995L40.006,-75.995L-41.12,-0.24L40.562,75.516L81.682,75.516L0,-0.479Z" style="fill:rgb(0,170,79);fill-rule:nonzero;"/>
            </g>
        </g>
    </g>
</svg>
