<svg version="1.1" xmlns="http://www.w3.org/2000/svg" xmlns:xlink="http://www.w3.org/1999/xlink" x="0px" y="0px" viewBox="0 0 457.6 110.7" xml:space="preserve" alt="site-logo" class="site-logo" style="enable-background:new 0 0 457.6 110.7;" width="350"  height="84.67" ><g><path d="M0,1.6h71.6l2.2,16.8H73c-3.7-3-7.9-5-12.5-5.9c-4.6-0.9-11.5-1.4-20.8-1.4H19.2v39.3h44.4V65c-2.9-2.1-6.2-3.5-10-4.3
      c-3.7-0.8-9.1-1.2-15.9-1.2H19.2v14.7c0,18.7,2.2,30.7,6.5,36H5.3V30.4c0-7-0.3-12.7-1-17.1C3.6,8.9,2.2,5,0,1.6 M126.4,85.9
      l4.9-11.2h47.3l8.7,22.1c2.1,5.2,3.6,9.7,4.5,13.6h19.9v-0.5c-2.9-2.9-5.6-6.8-8.1-11.6c-2.5-4.8-5-10.3-7.5-16.5L164.5,1.6h-15.2
      c0.4,1.1,0.5,2.2,0.5,3.3c0,2.4-0.7,5.3-2.2,8.5l-36.2,83.7c-1.8,4.1-4,8.5-6.5,13.2h19.6c-1.7-2.4-2.5-5.3-2.5-8.5
      c0-2.3,0.4-4.7,1.2-7.2C123.9,92.2,125,89.2,126.4,85.9 M135.5,65.2l20.8-48l18.7,48H135.5z M251.4,99.6l-2.4-19.7h0.5
      c5.1,6.9,10.3,12.2,15.6,15.9c5.3,3.7,11.5,5.6,18.5,5.6c6.9,0,12.4-1.6,16.6-4.9c4.2-3.3,6.2-7.5,6.2-12.7c0-4.2-1.6-8.2-4.8-11.9
      c-3.2-3.7-8.2-7.3-14.9-10.8l-11.4-6c-7.2-3.9-12.7-8.3-16.2-13.3c-3.6-5-5.3-10.8-5.3-17.3c0-7.8,2.9-13.9,8.7-18.2
      c5.8-4.3,13.6-6.4,23.4-6.4c4.3,0,8.7,0.6,13.1,1.7c4.4,1.1,8,2.6,10.8,4.4l2.2,20.1h-0.5c-2.8-5.3-6.5-9.4-11.1-12.4
      c-4.6-3-9.7-4.4-15.2-4.4c-5.8,0-10.4,1.3-13.7,4c-3.3,2.7-5,6-5,10.1c0,4,1.4,7.6,4.3,10.9c2.8,3.3,7.1,6.4,12.8,9.4l12.1,6.5
      c7.1,3.9,12.8,8.3,17.1,13.3c4.3,5,6.4,11,6.4,18c0,5.3-1.4,10.2-4.1,14.6c-2.7,4.4-6.8,7.9-12.3,10.5c-5.5,2.6-12.2,3.9-20,3.9
      C270.7,110.7,260.3,107,251.4,99.6 M359.4,20.1h-0.5l2.4-18.5h93.8l2.5,18.5H457c-4.5-3.6-9.2-6-14.2-7.2c-5-1.1-12.2-1.7-21.5-1.7
      H415v70.3c0,6.8,0.4,12.4,1.1,17c0.7,4.6,2.1,8.5,4.2,11.8h-19V11.2h-6.2c-9.3,0-16.5,0.6-21.6,1.7
      C368.5,14.1,363.8,16.5,359.4,20.1" fill="#1C292C"></path></g></svg>