<?xml version="1.0" encoding="utf-8"?>
<!-- Generator: Adobe Illustrator 16.0.0, SVG Export Plug-In . SVG Version: 6.00 Build 0)  -->
<!DOCTYPE svg PUBLIC "-//W3C//DTD SVG 1.1//EN" "http://www.w3.org/Graphics/SVG/1.1/DTD/svg11.dtd">
<svg version="1.1" id="Capa_1" xmlns="http://www.w3.org/2000/svg" xmlns:xlink="http://www.w3.org/1999/xlink" x="0px" y="0px"
	 width="248px" height="59px" viewBox="0 0 248 59" enable-background="new 0 0 248 59" xml:space="preserve">
<path fill="#FFFFFF" d="M209.895,45.092c5.597-0.129,9.095-5.287,8.949-11.791c-0.109-5.159-2.242-12.212-8.493-12.431
	c-0.145-0.016-0.31-0.016-0.456-0.016c-6.323,0.07-8.82,6.358-8.948,11.628c-0.126,4.771,1.933,11.934,7.674,12.554
	C209.056,45.072,209.475,45.092,209.895,45.092 M209.895,17.918c0.291,0.019,0.584,0.019,0.857,0.056
	c7.418,0.491,13.943,4.974,14.998,12.722c0.201,1.421,0.164,2.931,0,4.41c-0.929,8.2-8.072,12.937-15.855,12.993
	c-0.692,0.017-1.402-0.018-2.113-0.092c-8.586-0.854-14.378-7.674-13.978-16.128C194.222,23.496,201.512,17.755,209.895,17.918"/>
<path fill="#FFFFFF" d="M177,44c4.501-1.531,7.034-4.906,6.998-11.193c-0.128-6.232-3.08-9.456-6.998-10.842
	c-2.151-0.766-4.574-0.984-6.999-0.839l0.128,23.911C172.753,44.984,175.068,44.655,177,44 M177,18.629
	c6.798,0.657,13.559,5.267,14.015,12.668c0.491,8.38-4.684,14.416-13.34,16L177,47.405c-1.531,0.222-2.971,0.091-14.617,0.183
	c0.184-0.474,0.419-0.946,0.655-1.42c0-26.118,0-26.118-0.163-26.955c-0.492-0.347-0.492-0.347-0.657-0.766
	c4.521,0,9.096-0.037,13.67,0.109C176.271,18.575,176.636,18.593,177,18.629"/>
<path fill="#FFFFFF" d="M143.43,28.871l-3.646,8.422c-0.108,0.308,0.455-0.164,0.765-0.291c0.986-0.186,1.935,0,2.881,0.217
	c0.93,0.238,1.877,0.509,2.881,0.6c0.618,0.038,0.892-0.2,0.729-0.6 M143.43,39.405c-0.62-0.2-1.221-0.512-1.915-0.62
	c-0.654-0.091-1.384-0.091-1.968,0.182c-0.49,0.238-0.82,0.765-1.075,1.242c-0.817,1.621-1.165,2.84-1.93,4.502
	c-0.276,1.293-0.183,1.948,0.438,2.877h-5.944l1.076-1.186c0.512-0.895,1.002-1.857,1.514-2.807l0.089-0.164l11.555-25.641
	l12.829,27.848l1.733,1.949h-10.116c0.785-0.729,0.985-1.402,0.731-2.643c-0.84-2.021-1.696-3.826-2.698-5.869
	c-0.035-0.088-0.219-0.145-0.345-0.109c-0.385,0.092-0.657,0.494-1.076,0.603c-0.692,0.147-1.494,0.108-2.26,0
	C143.849,39.535,143.63,39.479,143.43,39.405"/>
<path fill="#FFFFFF" d="M133.626,21.309c-2.043-0.199-4.066-0.126-6.143-0.181l-0.11,25.001l0.711,1.459h-8.4l0.728-1.459
	l-0.127-25.001c-1.933,0.055-3.809,0-5.669,0.127c-0.162,0.017-0.309,0.036-0.455,0.036c-0.563,0.055-1.148,0.127-1.604,0.419
	c-0.675,0.458-1.037,1.202-1.021,0.712l0.129-3.864h24.438l0.11,3.864c0.019,0.49-0.347-0.254-1.003-0.712
	C134.755,21.417,134.171,21.345,133.626,21.309"/>
<path fill="#FFFFFF" d="M114.617,50.194c-3.882,1.843-8.402,2.026-11.227-2.533c-2.023-3.28-3.443-6.907-5.174-10.368
	c-0.403-0.529-0.767-1.076-1.13-1.553c-0.823-1.072-1.696-1.839-3.391-1.601v12.263c0.236,0.365,0.474,0.768,0.711,1.186h-8.748
	c0.127-0.348,0.601-0.707,0.838-1.186V19.577l-0.657-1.13c3.719,0,7.473,0.054,11.247,0.109h0.654
	c9.823,0.255,14.033,9.986,3.446,14.16c1.657,0.62,2.643,1.44,3.861,2.733c2.425,4.012,3.828,8.876,7.273,12.139
	c0.547,0.529,1.383,0.603,2.297,0.566c1.056-0.037,2.187-0.255,2.989-0.146c0.272,0.035-0.236,0.547-0.475,0.711
	C116.348,49.283,115.491,49.774,114.617,50.194 M97.086,31.023c4.482-1.878,4.573-8.257,0-9.715
	c-0.93-0.291-2.061-0.383-3.391-0.182c0.056,3.499,0.109,6.943,0.109,10.406C95.08,31.606,96.175,31.405,97.086,31.023"/>
<path fill="#FFFFFF" d="M227.267,14.355h0.814c0.416,0,0.868,0.08,0.868,0.606c0,0.623-0.496,0.652-1.04,0.652h-0.643
	 M226.653,17.81h0.613v-1.701h0.653l1.075,1.701h0.66l-1.13-1.744c0.587-0.063,1.039-0.363,1.039-1.076
	c0-0.76-0.442-1.132-1.385-1.132h-1.526V17.81z M225.179,15.821c0-1.622,1.213-2.868,2.795-2.868c1.564,0,2.774,1.246,2.774,2.868
	c0,1.654-1.21,2.901-2.774,2.901C226.392,18.722,225.179,17.476,225.179,15.821 M224.564,15.821c0,1.943,1.556,3.399,3.409,3.399
	c1.845,0,3.393-1.456,3.393-3.399c0-1.91-1.548-3.366-3.393-3.366C226.12,12.456,224.564,13.911,224.564,15.821"/>
<path fill="#FFFFFF" d="M57.172,41.467c-0.256-0.549-0.347-1.186-0.364-1.787c-0.165-6.542-0.129-13.577-0.237-20.121l-1.076-1.11
	h9.75c-0.237,0.346-0.528,0.71-0.82,1.057c0,6.798-0.328,13.576-0.126,20.356c0.217,7.02,13.157,6.814,13.34-0.182
	c0.145-6.598,0-13.213,0-19.813c-0.31-0.474-0.603-0.947-0.894-1.419h5.34c-0.291,0.583-0.583,1.183-0.893,1.785
	c-0.055,6.233-0.02,12.557-0.238,18.843C80.573,50.851,61.182,50.594,57.172,41.467 M24.569,47.586
	c0.109-0.289,0.291-0.58,0.473-0.944V15.057l-0.655-0.965h8.509l-0.729,1.603l0.128,14.58c0.729-0.474,1.495-0.803,2.315-0.82
	c2.496-0.073,7.162,2.224,9.166,0.346c0-4.81,0.056-9.694,0.128-14.579l-0.655-1.13h8.674l-0.892,1.785v29.871
	c0.237,0.603,0.473,1.184,0.71,1.838c-2.788,0-5.577-0.051-8.438-0.106l0.601-1.076c0-4.647-0.072-9.349-0.128-14.03
	c-1.057,0.781-1.805,0.981-3.206,0.82c-1.878-0.204-3.664-0.915-5.542-1.184c-1.748-0.26-2.861,0.56-2.861,2.312v11.427
	c0.239,0.603,0.493,1.184,0.729,1.838H24.569z"/>
</svg>
