<svg xmlns:xlink="http://www.w3.org/1999/xlink" width="350" height="67.74" viewBox="0 0 155 30" fill="none" xmlns="http://www.w3.org/2000/svg">
        <path fill-rule="evenodd" clip-rule="evenodd" d="M3.89611 0.860107H0.55559H0.341797V1.06305V28.8078V29.0125H0.55559H3.89611H4.11168V28.8078V1.06305V0.860107H3.89611Z" fill="#000"></path>
        <path fill-rule="evenodd" clip-rule="evenodd" d="M29.3182 0.829926V1.03287V22.8693L11.8763 0.911102L11.8121 0.829926H8.15625V1.03287V28.7776V28.9823H8.37004H11.7034H11.919V28.7776V6.89169L29.361 28.9029L29.4251 28.9823H29.5338H32.8618H33.0774V28.7776V1.03287V0.829926H29.3182Z" fill="#000"></path>
        <path fill-rule="evenodd" clip-rule="evenodd" d="M57.9061 22.9971L57.7672 22.833L57.5997 22.9706C55.6738 24.55 53.2258 25.4218 50.7084 25.4218C44.7881 25.4218 39.9724 20.7047 39.9724 14.9094C39.9724 9.11239 44.7881 4.39709 50.7084 4.39709C53.2009 4.39709 55.6435 5.27239 57.5872 6.86239L57.7547 6.99827L57.8936 6.83592L59.9621 4.43062L60.0939 4.27709L59.9372 4.1465C57.3538 2.02709 54.0721 0.858856 50.6959 0.858856C42.7678 0.858856 36.3184 7.16768 36.3184 14.9218C36.3184 22.6759 42.7678 28.983 50.6959 28.983C54.0739 28.983 57.3574 27.8147 59.9389 25.6936L60.0957 25.5647L59.9657 25.4112L57.9061 22.9971Z" fill="#000"></path>
        <path fill-rule="evenodd" clip-rule="evenodd" d="M66.9765 0.860107H63.6414H63.4258V1.06305V28.8113V29.0142H63.6414L81.6837 29.0089H81.8975V28.8042V25.6401V25.4372H81.6837H67.1921V1.06305V0.860107H66.9765Z" fill="#000"></path>
        <path fill-rule="evenodd" clip-rule="evenodd" d="M98.8455 0.860107H95.5103H95.3589L95.309 0.994225L84.7654 28.7407L84.6621 29.0125H84.9668H88.5122H88.6636L88.7153 28.8783L97.1779 6.61658L104.333 25.4372H92.4656H92.25V25.6401V28.8078V29.0125H92.4656H109.387H109.694L109.589 28.7407L99.0468 0.994225L98.9969 0.860107H98.8455Z" fill="#000"></path>
        <path fill-rule="evenodd" clip-rule="evenodd" d="M128.14 15.2372C127.564 14.9072 126.855 14.7095 126.171 14.5207C125.884 14.4413 123.178 13.5748 122.138 13.213L121.824 13.1036C119.284 12.2248 116.656 11.3178 116.909 8.27011C117.128 5.63363 119.934 4.51834 122.268 4.36481C123.18 4.30481 124.16 4.27658 125.352 4.27658C126.182 4.27658 127.028 4.29069 127.848 4.30305C128.662 4.31716 129.506 4.33128 130.33 4.33128H130.438V0.960693L123.324 0.962458C118.794 0.962458 115.501 2.64422 114.055 5.70069C113.331 7.23069 113.149 8.99363 113.557 10.5395C114.151 12.786 116.296 14.0725 117.513 14.6354C118.259 15.0607 119.164 15.3113 120.039 15.5548C120.36 15.6448 123.374 16.6048 124.516 17.0125C124.664 17.0654 124.815 17.1183 124.967 17.1695C126 17.5295 127.071 17.9001 127.809 18.673C128.803 19.7125 129.075 21.4313 128.461 22.7619C127.178 25.5413 123.305 25.5413 120.992 25.5413H113.349V28.9101H113.456H122.327C125.899 28.9101 128.389 28.056 130.167 26.2207C132.147 24.1807 133.182 20.5278 131.491 17.9442C130.709 16.8025 129.612 15.9166 128.14 15.2372" fill="#000"></path>
        <path fill-rule="evenodd" clip-rule="evenodd" d="M153.315 17.944C152.535 16.804 151.436 15.9164 149.964 15.237C149.389 14.907 148.68 14.7111 147.995 14.5205C147.709 14.4411 145.002 13.5746 143.962 13.2129L143.65 13.1035C141.108 12.2264 138.48 11.3176 138.733 8.26992C138.952 5.63522 141.758 4.51992 144.094 4.36463C145.004 4.30463 145.984 4.27639 147.176 4.27639C148.008 4.27639 148.854 4.29051 149.672 4.30463C150.488 4.31698 151.331 4.3311 152.156 4.3311H152.262V0.96051L145.148 0.962275C140.618 0.962275 137.325 2.64404 135.879 5.70051C135.155 7.23051 134.974 8.99522 135.382 10.5393C135.975 12.7876 138.12 14.0723 139.337 14.6352C140.083 15.0605 140.988 15.3129 141.863 15.5546C142.186 15.6446 145.198 16.6046 146.34 17.0123C146.488 17.0652 146.64 17.1182 146.791 17.1711C147.824 17.5293 148.895 17.9017 149.635 18.6746C150.627 19.7123 150.901 21.4329 150.285 22.7617C149.002 25.5411 145.129 25.5411 142.816 25.5411H135.173V28.9099H135.28H144.153C147.723 28.9099 150.214 28.0558 151.992 26.2223C153.971 24.1823 155.006 20.5276 153.315 17.944" fill="#000"></path>
    </svg>