<svg xmlns="http://www.w3.org/2000/svg" xmlns:xlink="http://www.w3.org/1999/xlink" width="138" height="40" viewBox="0 0 138 40"><defs><clipPath id="a"><rect width="138" height="40" fill="none"/></clipPath></defs><g transform="translate(0 0)"><rect width="32.056" height="3.959" transform="translate(92.706 36.041)" fill="#ce0035"/><rect width="32.056" height="3.959" transform="translate(14.374 36.041)" fill="#008c14"/><path d="M192.857,0,190.2,2.965h4.651V1.637Z" transform="translate(-166.241)" fill="#ce0035"/><path d="M163.106,22.91l0,2.329h-8.164l-2.779,3.1h13.02V24.62Z" transform="translate(-132.994 -20.032)" fill="#ce0035"/><path d="M133.322,46.392v4.7H116.786l-2.78,3.1H135.4l.014-6.079" transform="translate(-99.647 -40.563)" fill="#ce0035"/><path d="M103.69,70.066l-.011,7.073H78.773l-2.78,3.1h29.764V71.769Z" transform="translate(-66.422 -61.261)" fill="#ce0035"/><path d="M74,93.663l-.014,9.445H40.707l-2.78,3.1H76.062V95.364Z" transform="translate(-33.15 -81.893)" fill="#ce0035"/><path d="M44.429,128.834H2.78L0,131.931H46.507V118.68l-2.078-1.714Z" transform="translate(0 -102.268)" fill="#ce0035"/><g transform="translate(0 0)"><g clip-path="url(#a)"><path d="M489.47,104.253h-9.68V97.307h5.666V95.76H479.79V89.068h9.325V87.623H476.233v18.2H489.47ZM466.222,98.4c4.167,0,6.555-2.738,6.555-5.78,0-2.636-2.261-5.02-6.022-5.02l-5.132.025h-1.982v18.2H463.2V98.3a29.235,29.235,0,0,0,3.023.1m-2.465-9.481a7.993,7.993,0,0,1,3.71.482,4.042,4.042,0,0,1,1.524,3.6c0,4.03-2.947,4.132-5.793,4.132V88.916Zm-12.551,7.833c0,4.107-1.4,8.162-5.158,8.162-3.786,0-5.158-4.03-5.158-8.162,0-4.107,1.4-8.188,5.158-8.163s5.158,4.081,5.158,8.163m-5.158-9.658c-5.488,0-9.147,3.955-9.147,9.684,0,5.906,3.583,9.557,9.147,9.633,5.59-.1,9.173-3.777,9.147-9.684-.025-5.425-3.354-9.633-9.147-9.633m-11.814,17.162h-9.68V97.307h5.666V95.76h-5.666V89.068h9.324V87.623H421v18.2h13.238Zm-15.8,2.738-8.664-12.447,6.835-6.921h-2.032L405.675,96.8V87.623h-3.557v18.2h3.557V98.7l1.219-1.217c.661.786,1.22,1.5,2.668,3.3,2.185,2.738,5.945,6.211,8.868,6.211" transform="translate(-351.47 -76.147)" fill="#fff"/><path d="M460.4,9.166h-3.569V6.606h2.089v-.57h-2.089V3.568h3.438V3.036h-4.749v6.71h4.88Zm-8.655.58h1.311v-6.7h-1.311V6.082h-2.847V3.026h-1.311V9.746h1.311V6.615h2.847Zm-6.173-.888V8.12A2.115,2.115,0,0,1,443.387,9.3c-1.34,0-1.92-1.383-1.92-2.99s.777-2.776,1.9-2.776c1.208,0,1.489.5,2.192,1.682v-.8a2.431,2.431,0,0,0-2.145-1.524C441.364,2.886,440,4.241,440,6.6a3.113,3.113,0,0,0,3.185,3.318,2.78,2.78,0,0,0,2.388-1.056m-8.608.888h1.311V3.036h-1.311Zm-6.135-.57.244-.524,2.117-4.411v5.5H434.5V3.036h-1.311L430.854,7.8l-2.3-4.766h-1.3v6.71h.581V4.391l2.66,5.467ZM424,9.746h1.48l-2.66-6.794h-.5l-2.876,6.794h.7l.806-1.953h2.323ZM423.08,7.26h-1.911l1-2.44Zm-8.074-3.748a2.945,2.945,0,0,1,1.367.178,1.213,1.213,0,0,1,.562,1.14c0,1.336-1.124,1.336-2.192,1.336V3.512Zm4.28,6.664L416.608,6.5c1.368-.365,1.724-1.075,1.724-1.813a1.753,1.753,0,0,0-1.939-1.664c-.993,0-2.229.009-2.229.009h-.731v6.71h1.311V6.578l.178-.009c1.03,1.028,2.744,3.6,4.365,3.607m-7.624-1.009h-3.569V6.606h2.089v-.57h-2.089V3.568h3.438V3.036h-4.749v6.71h4.88Zm-6.894-.308V8.12A2.115,2.115,0,0,1,402.586,9.3c-1.339,0-1.92-1.383-1.92-2.99s.777-2.776,1.9-2.776c1.208,0,1.489.5,2.192,1.682v-.8a2.431,2.431,0,0,0-2.145-1.524c-2.051,0-3.419,1.355-3.419,3.71a3.112,3.112,0,0,0,3.185,3.318,2.78,2.78,0,0,0,2.389-1.056" transform="translate(-348.915 -2.523)" fill="#fff"/><path d="M404.284,290.763v-2.826l-.932,2.77h-.48l-.927-2.8v2.859h-.632V286.8h.88l.942,2.82.947-2.82h.835v3.959Z" transform="translate(-350.767 -250.763)" fill="#fff"/><path d="M438.885,290.764l-.233-.76h-1.428l-.232.76h-.658l1.26-3.959h.713l1.262,3.959Zm-.947-3.077-.511,1.67h1.023Z" transform="translate(-381.376 -250.764)" fill="#fff"/><path d="M470.842,290.34a1.309,1.309,0,0,1-1.008.424h-1.4V286.8h1.4a1.309,1.309,0,0,1,1.008.424,3.1,3.1,0,0,1,0,3.11m-.5-2.664a.672.672,0,0,0-.505-.223h-.745v2.664h.745a.672.672,0,0,0,.505-.223,2.507,2.507,0,0,0,0-2.217" transform="translate(-409.436 -250.764)" fill="#fff"/><path d="M498.631,290.763V286.8h2.556v.654h-1.9v.921h1.676v.648h-1.676v1.083h1.9v.654Z" transform="translate(-435.827 -250.763)" fill="#fff"/><rect width="0.663" height="3.959" transform="translate(67.546 36.041)" fill="#fff"/><path d="M552.8,290.763l-1.555-2.72v2.72H550.6V286.8h.693l1.534,2.681V286.8h.643v3.959Z" transform="translate(-481.255 -250.763)" fill="#fff"/><rect width="0.663" height="3.959" transform="translate(74.623 36.041)" fill="#fff"/><path d="M605.924,287.474v3.289h-.652v-3.289h-1.064V286.8h2.779v.669Z" transform="translate(-528.106 -250.764)" fill="#fff"/><path d="M629.838,290.764,629.6,290h-1.428l-.232.76h-.658l1.26-3.959h.713l1.262,3.959Zm-.947-3.077-.511,1.67H629.4Z" transform="translate(-548.278 -250.764)" fill="#fff"/><path d="M659.379,290.763V286.8h.652v3.277H661.7v.682Z" transform="translate(-576.329 -250.763)" fill="#fff"/><path d="M679.973,289.245v1.518h-.658v-1.518l-1.245-2.441h.709l.886,1.709.886-1.709h.677Z" transform="translate(-592.665 -250.763)" fill="#fff"/></g></g></g></svg>