<svg width="75" height="130" viewBox="0 0 75 130" fill="none" xmlns="http://www.w3.org/2000/svg">
<path d="M7.08593 74.7609H64.9918C66.4402 74.7609 67.6203 75.9383 67.6203 77.3867C67.6203 78.8351 66.4429 80.0152 64.9918 80.0152H7.08593V74.7609ZM9.71441 55.239C8.26601 55.239 7.08593 54.0617 7.08593 52.6133C7.08593 51.1649 8.26327 49.9848 9.71441 49.9848H67.6203V55.239H9.71441ZM0 77.3867C0 82.7422 4.35615 87.0984 9.71441 87.0984H32.1934V92.4484H27.5908V120.286C27.5908 121.734 26.4134 122.914 24.965 122.914C23.5166 122.914 22.3366 121.737 22.3366 120.286V92.4484H9.89511V97.8066H15.2534V120.288C15.2534 125.644 19.6095 130.003 24.965 130.003C30.3206 130.003 34.6767 125.644 34.6767 120.288V97.8066H40.0268V120.288C40.0268 125.644 44.3829 130.003 49.7384 130.003C55.0939 130.003 59.4501 125.644 59.4501 120.288V97.8066H64.8083V92.4484H52.3642V122.914H47.1099V92.4484H42.5074V87.0984H64.9863C70.3418 87.0984 74.7007 82.7422 74.7007 77.3867C74.7007 72.0312 70.3446 67.675 64.9863 67.675H42.5074V62.325H64.9863C70.3418 62.325 74.7007 57.9688 74.7007 52.6133C74.7007 47.2578 70.3446 42.9016 64.9863 42.9016H42.5074V37.5516H47.1099V9.71441C47.1099 8.26601 48.2873 7.08593 49.7357 7.08593C51.1841 7.08593 52.3614 8.26327 52.3614 9.71441V37.5516H64.8056V32.1933H59.4474V9.71441C59.4474 4.35889 55.0912 0 49.7357 0C44.3802 0 40.024 4.35615 40.024 9.71441V32.1933H34.674V9.71441C34.6767 4.35615 30.3206 0 24.965 0C19.6095 0 15.2534 4.35615 15.2534 9.71441V32.1933H9.89511V37.5516H22.3366V7.08593H27.5908V37.5516H32.1934V42.9016H9.71441C4.35889 42.9016 0 47.2578 0 52.6133C0 57.9688 4.35615 62.325 9.71441 62.325H32.1934V67.675H9.71441C4.35889 67.675 0 72.0312 0 77.3867Z" fill="black"/>
</svg>
