<?xml version="1.0" encoding="utf-8"?>
<!-- Generator: Adobe Illustrator 17.0.0, SVG Export Plug-In . SVG Version: 6.00 Build 0)  -->
<!DOCTYPE svg PUBLIC "-//W3C//DTD SVG 1.1//EN" "http://www.w3.org/Graphics/SVG/1.1/DTD/svg11.dtd">
<svg version="1.1" id="Layer_1" xmlns="http://www.w3.org/2000/svg" xmlns:xlink="http://www.w3.org/1999/xlink" x="0px" y="0px"
	 width="130px" height="30px" viewBox="0 0 130 30" enable-background="new 0 0 130 30" xml:space="preserve">
<g>
	<defs>
		<path id="SVGID_1_" d="M115.979,10.973V6.772c3.791,0,4.658-1.736,4.658-6.772h4.99v6.772H130v4.201h-4.374v11.1
			c0,1.682,0.926,2.143,2.48,2.143c0.421,0,1.095-0.041,1.514-0.082h0.335v4.921c-0.714,0.123-2.06,0.332-3.824,0.332
			c-4.164,0-6.98-1.344-6.98-5.883V10.973H115.979z M72.174,22.242H78.4c0.379,2.103,1.974,3.279,4.538,3.279
			c2.358,0,3.704-0.967,3.704-2.563c0-2.02-2.65-2.271-5.76-2.86c-3.996-0.756-8.031-1.764-8.031-6.977
			c0-4.583,4.159-6.982,9.417-6.982c6.221,0,9.332,2.69,9.919,6.603h-6.134c-0.423-1.6-1.682-2.398-3.785-2.398
			c-2.02,0-3.32,0.844-3.32,2.271c0,1.683,2.435,1.934,5.504,2.482c3.995,0.716,8.538,1.765,8.538,7.397
			c0,4.839-4.292,7.361-10.093,7.361C76.42,29.854,72.513,26.739,72.174,22.242z M109.87,15.812
			c-0.211-3.115-1.974-5.003-4.581-5.003c-3.027,0-4.542,1.933-4.962,5.003H109.87z M116.596,19.638h-16.31
			c0.419,3.361,2.228,5.382,5.423,5.382c2.059,0,3.363-0.804,4.077-2.19h6.392c-1.135,3.953-4.793,6.978-10.553,6.978
			c-7.316,0-11.815-5.127-11.815-11.811c0-6.727,4.668-11.858,11.479-11.858c3.196,0,5.717,1.053,7.693,2.859
			C115.504,11.438,116.639,15.224,116.596,19.638z M50.072,18.206c-0.967,0.588-2.397,0.926-3.867,1.263
			c-2.901,0.63-4.287,1.345-4.287,3.279c0,1.933,1.471,2.651,3.279,2.651c2.942,0,4.876-1.853,4.876-4.292V18.206z M50.745,29.137
			c-0.336-0.506-0.631-1.472-0.755-2.731h-0.084c-1.474,2.057-3.322,3.32-6.77,3.32c-4.415,0-7.651-2.353-7.651-6.768
			c0-4.961,3.909-6.225,8.787-6.813c3.994-0.543,5.634-1.176,5.634-2.859c0-1.596-1.051-2.691-3.322-2.691
			c-2.522,0-3.742,1.181-3.911,2.947h-6.096c0.169-3.826,3.28-7.402,9.922-7.402c2.86,0,4.878,0.424,6.433,1.345
			c2.311,1.345,3.407,3.658,3.407,6.686v11.48c0,1.764,0.251,2.731,0.838,3.11v0.378H50.745z M72.278,6.453v5.83
			c-0.374-0.054-0.748-0.088-1.123-0.088c-3.573-0.041-5.928,2.185-5.928,6.558v10.384h-6.385V6.772h6.132v3.991h0.128
			c1.429-3.111,3.448-4.37,6.22-4.37C71.704,6.394,72.019,6.412,72.278,6.453z M0,6.772h6.348v3.489h0.125
			c1.43-2.65,3.574-4.123,6.728-4.123c2.944,0,5.002,1.473,6.138,4.246h0.085c1.849-2.983,4.288-4.246,7.105-4.246
			c4.962,0,7.525,3.279,7.525,8.241v14.758h-6.558V15.474c0-2.44-1.177-3.908-3.323-3.908c-2.353,0-3.824,1.974-3.824,4.834v12.738
			h-6.601V15.474c0-2.44-1.092-3.908-3.279-3.908c-2.312,0-3.867,1.974-3.867,4.834v12.738H0V6.772z"/>
	</defs>
	<use xlink:href="#SVGID_1_"  overflow="visible" fill-rule="evenodd" clip-rule="evenodd"/>
	<clipPath id="SVGID_2_">
		<use xlink:href="#SVGID_1_"  overflow="visible"/>
	</clipPath>
	<rect x="-5" y="-5" clip-path="url(#SVGID_2_)" width="140" height="39.854"/>
</g>
</svg>
