<?xml version="1.0" encoding="UTF-8"?>
<svg id="Livello_1" xmlns="http://www.w3.org/2000/svg" version="1.1" viewBox="0 0 1152.1 180">
  <!-- Generator: Adobe Illustrator 29.1.0, SVG Export Plug-In . SVG Version: 2.1.0 Build 142)  -->
  <defs>
    <style>
      .st0 {
        fill: #1d1d1b;
      }
    </style>
  </defs>
  <path class="st0" d="M51.9,117.5c0,17.8,2.1,30.1,6.3,36.8,5.4,8.6,16.4,12.9,32.8,12.9v3.5H10.7v-3.5c13.8,0,23.6-3.4,29.3-10.1,5.2-6.1,7.8-19.3,7.8-39.6V39.3c0-11.1-3.2-18.3-9.7-21.7-4.2-2.2-12.7-3.3-25.4-3.3h-2v-3.5h70.5l44.3,126.4L169.1,10.8h71.5v3.5c-13.6,0-22.7,1.3-27.3,3.8-6.6,3.6-9.9,11.5-9.9,23.6v98c0,12.2,3.3,20.1,9.8,23.7,4.6,2.5,13.7,3.8,27.4,3.8v3.5h-95v-3.5c12.1,0,20.7-1.9,25.8-5.8,4.2-3.8,6.4-11.1,6.4-21.7V15.6h-6.3l-53.4,155.1h-4.6L58.6,15.6h-6.7v101.8Z"/>
  <path class="st0" d="M294.1,41.7c0-12.2-3.4-20.1-10.2-23.7-4.6-2.4-13.8-3.7-27.6-3.7v-3.5h100.5v3.5c-13.6,0-22.7,1.3-27.4,3.8-6.7,3.7-10,11.6-10,23.6v82.1c0,17.4,3.2,29.8,9.7,37,6.9,7.7,19,11.6,36.2,11.6s32.9-5.1,41.2-15.4c7.5-9.2,11.2-23.6,11.2-43.3V48c0-16.8-6.5-27.4-19.6-31.6-4.2-1.3-9.7-2-16.4-2v-3.5h74.5v3.5c-22.1,0-33.2,11.6-33.2,34.7v62.9c0,22.8-4.8,39.2-14.5,49.3-9.7,10.1-25.1,15.1-46.4,15.1s-25.6-1.8-36-5.3c-16.6-5.6-26.6-15.6-30.1-29.7-1.3-5.4-2-15.3-2-29.7V41.7Z"/>
  <path class="st0" d="M551.3,139.7c0,12.3,3.3,20.3,9.8,23.8,4.5,2.4,13.7,3.7,27.6,3.7v3.5h-100.8v-3.5c13.8,0,23-1.3,27.6-3.8,6.8-3.6,10.1-11.5,10.1-23.7V14.3h-7.8c-16,0-28.9,7-38.5,20.9-5.9,8.6-11.8,22.8-17.8,42.7h-3.7l1.8-67.1h157.8l1.6,67.1h-3.8c-6.1-20.2-12.1-34.5-17.8-42.9-9.5-13.8-22.4-20.6-38.6-20.6h-7.7v125.4Z"/>
  <path class="st0" d="M698.6,139.7c0,11.9,3.4,19.8,10.1,23.6,4.7,2.6,13.8,3.9,27.3,3.9v3.5h-100.5v-3.5c13.7,0,22.8-1.3,27.5-3.8,6.8-3.7,10.3-11.6,10.3-23.7V41.7c0-12.2-3.4-20.1-10.1-23.7-4.6-2.4-13.8-3.7-27.6-3.7v-3.5h100.5v3.5c-13.6,0-22.7,1.3-27.4,3.8-6.7,3.7-10,11.6-10,23.6v98Z"/>
  <path class="st0" d="M795.7,126.2c0,14.1,2.4,24.2,7.1,30.4,5.4,7.1,14.9,10.6,28.4,10.6v3.5h-74.9v-3.5c13.3,0,22.7-3.6,28.1-10.8,4.8-6.3,7.2-16.3,7.2-29.9V28.4c-7.9-9.4-18.7-14-32.6-14h-2.7v-3.5h49.8l114.6,129V55.3c0-14.9-2.4-25.3-7.2-31.1-5.4-6.5-15.3-9.8-29.7-9.8v-3.5h76.6v3.5c-13.5,0-22.9,3.6-28.3,10.6-4.8,6.2-7.2,16.3-7.2,30.1v118.5h-4.1c0,0-125-140.3-125-140.3v93Z"/>
  <path class="st0" d="M937.7,170.7v-3.5c19,0,34.5-8.7,46.4-26.2,4.6-6.8,8.2-13.4,10.9-19.9l45.9-113.7h6.3l55.8,133c5.1,12.2,10.2,19.8,15.2,22.7,4.6,2.8,11.8,4.1,21.8,4.1h4.6c0-.1,0,3.4,0,3.4h-98.3v-3.5c11.7,0,18.5,0,20.4-.2,9.9-1.2,14.9-4.5,14.9-10l-.8-4.4c-.2-1.1-.9-3.2-2.1-6.2l-12.5-31.2h-63.9l-3.6,8.6c-1.5,3.5-2.7,7.4-3.7,11.6l-1.2,8.8c0,15.5,12,23.2,36,23.2l.8,3.4h-92.9ZM1003.2,111.5h61.7l-30.7-76.2-31,76.2Z"/>
</svg>