<svg class="icon icon-logo" width="350" height="56.1" viewBox="0 0 287 46" version="1.1" xmlns="http://www.w3.org/2000/svg" xmlns:xlink="http://www.w3.org/1999/xlink">
    <g id="Symbols" stroke="none" stroke-width="1" fill="none" fill-rule="evenodd">
        <g id="Nav-bar" transform="translate(-577.000000, -17.000000)" fill="#000000">
            <g id="Logo">
                <g transform="translate(577.000000, 17.000000)">
                    <path d="M184.433763,12.4901735 C185.423466,12.4901735 187.707723,12.5915612 189.994329,14.0433776 C191.131055,14.7192959 192.120759,15.7542959 192.386152,16.0180918 L192.386152,16.0180918 L192.386152,12.952051 L199.645232,12.952051 L199.645232,46.0002347 L192.386152,46.0002347 L192.386152,33.0343367 C191.131055,34.2261122 189.109373,36.3022143 184.850875,36.3022143 C183.080024,36.3022143 181.167317,35.8825816 179.608311,35.0048265 C177.524155,33.8660918 173.946754,30.5395408 173.946754,24.3121735 C173.946754,22.6021939 174.264756,16.8475 179.296885,13.8908265 C180.907091,12.9008878 182.559573,12.4901735 184.433763,12.4901735 Z M211.627788,12.9521449 L211.627788,24.6300429 C211.627788,26.4381245 211.726429,28.313798 213.397699,29.4985327 C214.377069,30.1857163 215.467293,30.2256143 215.886755,30.2256143 C216.716283,30.1857163 217.443413,30.0233082 218.163966,29.5515735 C219.779339,28.4184714 219.877041,26.5972469 219.877041,24.8281245 L219.877041,12.9521449 L227.203292,12.9521449 L227.203292,24.8281245 C227.203292,27.5857776 227.151153,30.2256143 225.388756,32.5636347 C222.371734,36.4004102 217.233917,36.5055531 215.936076,36.5055531 C211.627788,36.5055531 206.539292,34.8420429 204.930495,30.3302878 C204.355085,28.7794306 204.256444,27.3252673 204.256444,24.1029204 L204.256444,12.9521449 L211.627788,12.9521449 Z M36.5976669,12.4358653 C37.6343429,12.4358653 40.1802349,12.4893755 42.4612038,14.3002735 C43.1902119,14.8729265 43.6552365,15.4441714 44.2320548,16.119151 L44.2320548,16.119151 L44.2320548,13.0071102 L51.5460925,13.0071102 L51.5460925,35.6273755 L44.2832545,35.6273755 L44.2832545,33.3940286 C43.759045,33.8066204 43.2949599,34.2713143 42.7181416,34.6379061 C41.7880925,35.2607837 39.5592627,36.4581918 36.492919,36.4581918 C35.7671989,36.4581918 33.9489059,36.3995184 32.1301432,35.5151918 C27.8227946,33.544702 25.9058601,28.8822735 25.9058601,24.4212122 C25.9058601,22.8609673 26.0599288,18.5036408 29.4301825,15.1874163 C31.4607897,13.2108245 33.8427488,12.4358653 36.5976669,12.4358653 Z M138.657403,12.4358653 C139.689382,12.4358653 142.238092,12.4893755 144.52141,14.3002735 C145.24713,14.8729265 145.7192,15.4441714 146.279109,16.119151 L146.279109,16.119151 L146.279109,13.0071102 L153.607238,13.0071102 L153.607238,35.6273755 L146.343461,35.6273755 L146.343461,33.3940286 C145.819251,33.8066204 145.354696,34.2713143 144.781636,34.6379061 C143.848768,35.2607837 141.61806,36.4581918 138.549837,36.4581918 C137.825056,36.4581918 136.002066,36.3995184 134.188001,35.5151918 C129.877834,33.544702 127.956672,28.8822735 127.956672,24.4212122 C127.956672,22.8609673 128.119196,18.5036408 131.492268,15.1874163 C133.51442,13.2108245 135.908592,12.4358653 138.657403,12.4358653 Z M271.683407,12.4358653 C272.725249,12.4358653 275.266914,12.4893755 277.55305,14.3002735 C278.284876,14.8729265 278.749901,15.4441714 279.314037,16.119151 L279.314037,16.119151 L279.314037,13.0071102 L286.639348,13.0071102 L286.639348,35.6273755 L279.372282,35.6273755 L279.372282,33.3940286 C278.850891,33.8066204 278.376942,34.2713143 277.818443,34.6379061 C276.87712,35.2607837 274.647821,36.4581918 271.581477,36.4581918 C270.853878,36.4581918 269.031827,36.3995184 267.223868,35.5151918 C262.912292,33.544702 260.994888,28.8822735 260.994888,24.4212122 C260.994888,22.8609673 261.148487,18.5036408 264.517331,15.1874163 C266.543711,13.2108245 268.936943,12.4358653 271.683407,12.4358653 Z M15.0061074,12.3830592 C18.5374756,12.3830592 20.5568095,14.1437327 21.3370173,15.2890388 C22.5348079,17.1093245 22.6390861,19.0798143 22.6390861,21.146998 L22.6390861,35.6271408 L15.2606966,35.6271408 L15.2606966,23.2268551 C15.2606966,21.874549 15.216073,20.4246102 14.0699519,19.3877327 C13.1924011,18.6539415 12.2678326,18.6107774 11.8104305,18.6082383 L11.7302678,18.6080796 C11.2643038,18.6080796 10.1266376,18.662998 9.08761309,19.4881816 C7.4913811,20.6887777 7.28251148,22.400643 7.26787692,24.1412474 L7.26697152,35.6271408 L-9.39443534e-05,35.6271408 L-9.39443534e-05,13.0561612 L7.37359836,13.0561612 L7.37359836,16.017998 C8.4036982,14.9731408 10.8476606,12.3276714 15.0061074,12.3830592 Z M71.4838556,12.3830592 C75.0044203,12.3830592 77.0284514,14.1437327 77.8100684,15.2890388 C79.0064498,17.1093245 79.102273,19.0798143 79.102273,21.146998 L79.102273,35.6271408 L71.7328082,35.6271408 L71.7328082,23.2268551 C71.7328082,21.874549 71.6839571,20.4246102 70.5359571,19.3877327 C69.6632693,18.6539415 68.73441,18.6107774 68.2839268,18.6082383 L68.2051977,18.6080796 C67.7373548,18.6080796 66.6006282,18.662998 65.5587853,19.4881816 C63.8931519,20.7409776 63.7447198,22.5504673 63.7447198,24.3684061 L63.7447198,35.6271408 L56.4720177,35.6271408 L56.4720177,13.0561612 L63.84571,13.0561612 L63.84571,16.017998 C64.8823859,14.9731408 67.3225905,12.3276714 71.4838556,12.3830592 Z M239.237235,13.0560204 L239.237235,35.627 L231.809994,35.627 L231.809994,13.0560204 L239.237235,13.0560204 Z M101.488837,12.4360061 C102.573424,12.4360061 105.38283,12.5392714 107.463228,14.9228224 C107.978043,15.493598 108.288999,16.0643735 108.653033,16.6900673 C109.018007,16.2727816 109.323796,15.8620673 109.747485,15.445251 C110.78463,14.2999449 112.706732,12.4904551 116.493159,12.4904551 C121.427586,12.4904551 123.549789,15.2894143 124.181565,17.2092102 C124.539493,18.2470265 124.642832,19.1787612 124.692622,21.3097816 L124.692622,21.3097816 L124.692622,35.6270469 L117.317991,35.6270469 L117.318883,22.9269751 C117.329064,21.7993125 117.364274,18.7563122 113.794608,18.7563122 C113.172226,18.7563122 111.40983,18.8192102 110.265118,20.4245163 C109.535171,21.4595163 109.486789,22.6578633 109.486789,23.8472918 L109.486789,23.8472918 L109.486789,35.6270469 L102.063776,35.6270469 L102.063667,23.1874355 C102.061158,21.6879126 102.000951,20.1229543 100.555969,19.1787612 C100.241725,19.0196388 99.5676746,18.6624347 98.587835,18.6624347 C98.1679038,18.6624347 97.2298694,18.7159449 96.2443931,19.3383531 C95.0456632,20.0752918 94.5735928,21.1774143 94.3857041,22.1387204 L94.3857041,22.1387204 L94.3857041,16.3056388 C95.368362,14.8064143 97.0908318,12.4360061 101.488837,12.4360061 Z M250.09584,12.3832469 C253.627208,12.3832469 255.659224,14.1439204 256.438493,15.2892265 C257.626419,17.1095122 257.730227,19.0795327 257.730227,21.1467163 L257.730227,21.1467163 L257.730227,35.6273286 L250.361232,35.6273286 L250.361232,23.2265735 C250.361232,21.8756755 250.29829,20.4243286 249.171427,19.3888592 C248.231044,18.607798 247.238992,18.607798 246.826106,18.607798 C246.362961,18.607798 245.219188,18.6631857 244.180633,19.4893082 C243.087121,20.3051041 242.648401,21.3663898 242.476953,22.5131041 L242.476953,22.5131041 L242.476953,16.0026959 C243.518795,14.9620633 245.954303,12.3278592 250.09584,12.3832469 Z M172.855779,12.5920776 L172.807397,20.0628531 C172.495032,19.8488122 171.246982,19.0794857 169.851438,19.0794857 C169.435734,19.0794857 168.442273,19.1785265 167.610865,19.9595878 C166.057495,21.3588327 165.899669,23.590302 165.899669,27.5857306 L165.899669,35.6272816 L158.525037,35.6272816 L158.525037,13.056302 L165.801967,13.056302 L165.801967,16.7414653 C165.851288,16.7414653 166.630556,15.548751 167.148659,14.9225878 C169.22436,12.4902204 171.657049,12.5920776 172.855779,12.5920776 Z M91.1310959,13.0560204 L91.1310959,35.627 L83.71278,35.627 L83.71278,13.0560204 L91.1310959,13.0560204 Z M274.127369,18.6069061 C273.344343,18.6069061 271.532626,18.7552327 270.076958,20.4234367 C268.732145,21.9775796 268.732145,23.6931918 268.732145,24.4212122 C268.732145,27.4745796 270.234785,29.0399878 271.32266,29.7079265 C271.734606,30.0224163 272.879318,30.5913143 274.383367,30.5913143 C277.764425,30.5913143 279.784698,27.7890694 279.784698,24.6784367 C279.784698,21.409151 277.55305,18.6069061 274.127369,18.6069061 Z M141.096669,18.6069061 C140.313642,18.6069061 138.495819,18.7552327 137.043909,20.4234367 C135.803844,21.8480677 135.700505,23.4083778 135.691893,24.2192973 L135.69111,24.4212122 C135.69111,27.4745796 137.205024,29.0399878 138.285854,29.7079265 C138.710012,30.0224163 139.847678,30.5913143 141.356894,30.5913143 C144.727618,30.5913143 146.75024,27.7890694 146.75024,24.6784367 C146.75024,21.409151 144.52141,18.6069061 141.096669,18.6069061 Z M39.0364624,18.6069061 C38.2675278,18.6069061 36.4435982,18.7552327 34.9907488,20.4234367 C33.7506833,21.8480677 33.6473445,23.4083778 33.638733,24.2192973 L33.6379501,24.4212122 C33.6379501,27.4745796 35.145757,29.0399878 36.2294051,29.7079265 C36.6488666,30.0224163 37.7902905,30.5913143 39.300446,30.5913143 C42.6688208,30.5913143 44.6970794,27.7890694 44.6970794,24.6784367 C44.6970794,21.409151 42.4612038,18.6069061 39.0364624,18.6069061 Z M187.29155,18.5035 C186.930334,18.5035 185.780925,18.5570102 184.803903,19.0198265 C183.664828,19.5971735 181.842777,21.1470918 181.842777,24.3685 C181.842777,24.8285 181.894916,25.5598061 182.203054,26.5976224 C182.51401,27.6321531 183.811851,30.3888673 187.186332,30.3888673 C187.497288,30.3888673 188.277496,30.3888673 189.060522,30.0743776 C190.456065,29.6026429 192.690062,28.1034184 192.690062,24.4684796 C192.690062,23.6432959 192.589072,21.248949 190.560344,19.6436429 C189.994329,19.2362143 189.004155,18.5570102 187.29155,18.5035 Z M87.4202939,0 C89.8572105,0 91.8305116,1.9742449 91.8305116,4.40332653 C91.8305116,6.82959184 89.8572105,8.80008163 87.4202939,8.80008163 C84.9937113,8.80008163 83.0227588,6.82959184 83.0227588,4.40332653 C83.0227588,1.9742449 84.9937113,0 87.4202939,0 Z M235.518447,0 C237.950667,0 239.928665,1.9742449 239.928665,4.40332653 C239.928665,6.82959184 237.950667,8.80008163 235.518447,8.80008163 C233.090925,8.80008163 231.118094,6.82959184 231.118094,4.40332653 C231.118094,1.9742449 233.090925,0 235.518447,0 Z" id="Combined-Shape" fill="#FFFFFF"></path>
                </g>
            </g>
        </g>
    </g>
</svg>