<?xml version="1.0" encoding="UTF-8"?><svg id="Livello_1" xmlns="http://www.w3.org/2000/svg" viewBox="0 0 105.42 25.8"><defs><style>.cls-1{fill:#193153;}</style></defs><path class="cls-1" d="M98.74,3.92c0-.73,.06-1.4-.02-2.06-.09-.77-.56-1.34-1.33-1.48-.58-.1-1.2-.12-1.78-.02-.8,.13-1.34,.66-1.51,1.49-.24,1.18-.11,2.3,.75,3.21,.8,.85,1.61,1.68,2.45,2.48,.95,.9,1.09,2.02,.9,3.22-.11,.7-.54,1.15-1.26,1.3-1.32,.28-2.26-.42-2.31-1.79-.03-.62,0-1.24,0-1.84-.46-.15-.66-.06-.64,.38,.02,.54,0,1.08,0,1.62,.01,1.11,.53,1.82,1.53,2.13,1.19,.37,2.48,.02,3.02-.83,.14-.21,.26-.46,.3-.71,.31-1.58,.08-3.01-1.15-4.16-.72-.68-1.4-1.4-2.11-2.09-.63-.62-.94-1.36-.89-2.27,.06-1.09,.62-1.68,1.7-1.68,1.13,0,1.69,.55,1.71,1.71,0,.39,0,.78,0,1.17,0,.06,.03,.12,.06,.21h.55Zm-6.57-3.56v.84c0,2.82,0,5.63,0,8.45,0,.3-.02,.61-.07,.9-.17,1.01-.76,1.54-1.74,1.57-.99,.03-1.63-.5-1.83-1.54-.06-.29-.07-.6-.07-.9,0-2.86,0-5.72,0-8.58V.38h-.72v.75c0,2.66,0,5.33,0,7.99,0,.45,.01,.91,.06,1.36,.19,1.58,1.04,2.28,2.67,2.22,1.47-.05,2.32-.9,2.34-2.45,.03-3.23,0-6.45,0-9.68,0-.06-.04-.12-.06-.2h-.59ZM34.71,21.1h-.82c-2.64,0-5.28,0-7.92,0-.47,0-.69-.08-.68-.64,.03-1.84,.01-3.68,.02-5.52,0-.18,.04-.37,.06-.62h6.96c0-1.16-.03-2.24,.01-3.32,.02-.57-.12-.79-.74-.77-1.89,.04-3.78,.02-5.67,.01-.22,0-.45-.03-.67-.04V4.43h.8c2.36,0,4.72,0,7.08-.01,.22,0,.61-.16,.64-.31,.23-1.23,.4-2.47,.6-3.74h-14.09V25.35h14.42v-4.25Zm-17.55,4.3V.37h-4.73c.12,5.47,.24,10.89,.36,16.44-.15-.45-.27-.79-.39-1.13C10.58,10.49,7.92,5.67,5.64,.69c-.08-.18-.42-.34-.64-.35-1.5-.03-3.01-.02-4.51-.01-.16,0-.33,.03-.49,.05V25.37H4.77c-.09-5.73-.18-11.42-.27-17.12,.61,1.29,1.12,2.61,1.69,3.9,1.87,4.27,3.75,8.54,5.64,12.8,.08,.19,.34,.42,.52,.43,1.59,.03,3.17,.02,4.82,.02M42.71,8.36s.05-.02,.07-.03c.08,.26,.16,.52,.22,.78,1.36,5.25,2.73,10.5,4.07,15.75,.1,.41,.25,.57,.68,.56,1.12-.03,2.23-.03,3.35,0,.39,0,.55-.12,.66-.51,1.4-5.06,2.82-10.11,4.24-15.17,.12-.43,.24-.85,.36-1.28,.03,0,.06,.01,.1,.02,.38,5.62,.76,11.23,1.14,16.88h4.93c-.74-8.36-1.48-16.69-2.21-25.04-2.03,0-3.96,.02-5.89-.01-.5,0-.7,.15-.83,.63-1.02,3.98-2.07,7.95-3.11,11.92-.31,1.18-.61,2.36-.96,3.71-1.4-5.53-2.76-10.88-4.11-16.21h-6.49c-.77,8.34-1.54,16.65-2.32,25.03,1.62,0,3.18,0,4.74-.02,.11,0,.29-.28,.31-.44,.08-.75,.12-1.51,.16-2.27,.3-4.77,.6-9.54,.9-14.32"/><path class="cls-1" d="M42.71,8.36c-.3,4.77-.6,9.54-.9,14.32-.05,.76-.08,1.51-.16,2.27-.02,.16-.2,.44-.31,.44-1.56,.03-3.12,.02-4.74,.02,.78-8.38,1.55-16.69,2.32-25.03h6.49c1.35,5.33,2.71,10.68,4.11,16.21,.35-1.35,.65-2.53,.96-3.71,1.04-3.97,2.09-7.94,3.11-11.92,.12-.48,.32-.64,.83-.63,1.93,.03,3.86,.01,5.89,.01,.74,8.35,1.47,16.67,2.21,25.04h-4.93c-.38-5.65-.76-11.27-1.14-16.88-.03,0-.07-.01-.1-.02-.12,.43-.24,.85-.36,1.28-1.42,5.06-2.84,10.11-4.24,15.17-.11,.39-.27,.52-.66,.51-1.12-.02-2.23-.03-3.35,0-.43,.01-.57-.15-.68-.56-1.34-5.25-2.71-10.5-4.07-15.75-.07-.26-.15-.52-.22-.78-.02,.01-.05,.02-.07,.03"/><path class="cls-1" d="M17.16,25.41c-1.64,0-3.23,.01-4.82-.02-.18,0-.43-.24-.52-.43-1.89-4.26-3.78-8.53-5.64-12.8-.57-1.29-1.08-2.61-1.69-3.9,.09,5.69,.18,11.39,.27,17.12H0V.39c.16-.02,.32-.05,.49-.05,1.5,0,3.01-.02,4.51,.01,.22,0,.56,.17,.64,.35,2.29,4.98,4.94,9.79,6.76,14.99,.12,.34,.23,.68,.39,1.13-.12-5.55-.24-10.98-.36-16.44h4.73V25.41Z"/><path class="cls-1" d="M34.71,21.1v4.25h-14.42V.37h14.09c-.19,1.28-.36,2.51-.6,3.74-.03,.14-.42,.31-.64,.31-2.36,.02-4.72,.01-7.08,.01h-.8v5.77c.22,.01,.45,.04,.68,.04,1.89,0,3.78,.03,5.67-.01,.62-.01,.76,.2,.74,.77-.04,1.08-.01,2.16-.01,3.32h-6.96c-.03,.25-.06,.44-.06,.62,0,1.84,.02,3.68-.02,5.52-.01,.55,.21,.64,.68,.64,2.64-.02,5.28,0,7.92,0h.82Z"/><path class="cls-1" d="M92.17,.36h.59c.03,.08,.06,.14,.06,.2,0,3.23,.03,6.45,0,9.68-.01,1.55-.87,2.39-2.34,2.45-1.63,.06-2.48-.64-2.67-2.22-.05-.45-.06-.91-.07-1.36,0-2.66,0-5.33,0-7.99V.38h.72v.73c0,2.86,0,5.72,0,8.58,0,.3,.02,.61,.07,.9,.2,1.04,.84,1.57,1.83,1.54,.98-.03,1.57-.56,1.74-1.57,.05-.3,.07-.6,.07-.9,0-2.82,0-5.63,0-8.45V.36Z"/><path class="cls-1" d="M98.74,3.92h-.55c-.03-.09-.06-.15-.06-.21,0-.39,0-.78-.01-1.17-.02-1.15-.58-1.71-1.71-1.71-1.08,0-1.63,.59-1.7,1.68-.05,.91,.25,1.65,.89,2.27,.71,.69,1.39,1.42,2.11,2.09,1.23,1.16,1.46,2.58,1.15,4.16-.05,.25-.17,.49-.3,.71-.54,.85-1.83,1.19-3.02,.83-1.01-.31-1.52-1.02-1.53-2.13,0-.54,.02-1.08,0-1.62-.02-.44,.18-.53,.64-.38,0,.59-.02,1.21,0,1.84,.06,1.36,1,2.07,2.31,1.79,.72-.15,1.15-.61,1.26-1.3,.19-1.2,.05-2.32-.9-3.22-.84-.8-1.65-1.64-2.45-2.48-.86-.91-.99-2.03-.75-3.21,.17-.83,.71-1.36,1.51-1.49,.58-.1,1.2-.08,1.77,.02,.77,.14,1.24,.71,1.33,1.48,.08,.66,.02,1.33,.02,2.06"/><path class="cls-1" d="M102.57,1.77c-.06,0-.11,.02-.17,.03-.45,2.3-.9,4.61-1.36,6.96h2.91c-.47-2.36-.93-4.67-1.39-6.98m-1.64,7.63c-.19,.97-.35,1.84-.53,2.71-.1,.52-.11,.52-.76,.42,.8-4.04,1.6-8.08,2.41-12.15h.92c.82,4.06,1.64,8.11,2.45,12.16-.5,.19-.73,.05-.81-.43-.13-.77-.27-1.53-.45-2.29-.04-.17-.27-.4-.43-.4-.92-.04-1.84-.02-2.8-.02"/><path class="cls-1" d="M69.64,12.93c.04,2.03,.12,4.02,.78,5.93,.35,1.02,.88,1.93,1.86,2.48,2.77,1.57,5.87,.44,6.78-2.61,.42-1.41,.59-2.92,.7-4.4,.16-2.38,.09-4.76-.55-7.09-.55-2.01-2.19-3.27-4.31-3.38-1.83-.09-3.47,.99-4.24,2.8-.86,2.01-.96,4.15-1.01,6.27m15.98-.1c-.08,2.94-.54,5.76-2.06,8.3-1.82,3.03-4.5,4.61-8.03,4.68-1.55,.03-3.09-.06-4.57-.57-2.67-.91-4.3-2.91-5.46-5.38-1.32-2.82-1.58-5.82-1.29-8.88,.25-2.65,1.02-5.13,2.66-7.27,1.7-2.22,3.99-3.35,6.72-3.63,2.5-.25,4.88,.11,7.03,1.51,2.71,1.76,4.03,4.42,4.6,7.51,.23,1.23,.28,2.49,.41,3.73"/></svg>