<svg xmlns:xlink="http://www.w3.org/1999/xlink" class="site-logo__svg" xmlns="http://www.w3.org/2000/svg" viewBox="0 0 103 35" width="350"  height="118.93" >
                        <path d="M53.283 16.404c-.752 1.503-1.002 3.507-1.002 5.698 0 2.504.188 4.758 1.377 6.449.94 1.377 2.63 2.317 5.134 2.317 4.759 0 7.138-3.507 7.138-8.766 0-5.009-1.753-8.954-6.7-8.954-3.067 0-4.946 1.315-5.947 3.256zm-1.065 15.841v2.442h-4.82V0h4.945v12.21c1.566-1.754 4.446-3.131 7.64-3.131 8.139 0 11.019 6.323 11.019 12.585 0 7.2-3.444 13.336-11.646 13.336-4.132 0-6.136-1.69-7.138-2.755zM10.581 12.898c-2.003 0-5.196.626-5.196 3.193 0 1.503 1.001 2.317 2.63 2.692 4.57 1.19 13.148.313 13.148 8.077 0 3.444-2.066 8.015-11.02 8.015C4.508 34.875.125 32.182 0 26.86h5.134c.063 2.004 1.378 4.008 5.322 4.008 4.258 0 5.698-1.941 5.698-3.632 0-1.628-.877-2.38-2.943-2.88C8.515 23.29.438 24.106.438 16.279c0-4.195 3.632-7.45 10.331-7.45 8.39 0 9.768 5.008 9.955 7.45h-4.946c-.25-2.505-2.317-3.381-5.197-3.381zM44.517 30.68v-4.884h-5.009c-.125 1.252-.626 2.504-1.565 3.381-.063.063-.125.063-.188.125-.751.814-2.129 1.378-3.694 1.503-.188 0-.438.063-.626.063-2.818 0-4.446-.94-5.134-2.004a5.195 5.195 0 01-.376-1.315v-.376-.125c0-.25 0-.438.063-.689.313-1.064 1.19-1.628 2.817-2.003 4.696-1.065 12.773-.25 12.773-8.077 0-4.195-3.632-7.45-10.331-7.45-8.39 0-9.767 5.008-9.955 7.45h4.946c.25-2.63 2.317-3.444 5.197-3.444 2.003 0 5.197.626 5.197 3.194 0 1.502-1.002 2.316-2.63 2.692-1.378.375-3.068.5-4.759.814-.5.062-.939.125-1.377.188-.877.125-1.941.438-3.068.939-1.941.876-3.444 2.254-3.82 4.82-.062.502-.125 1.003-.125 1.566 0 .188 0 .376.063.564.25 4.695 3.82 7.325 8.515 7.325.689 0 1.378-.062 1.941-.125.188 0 .626-.063.626-.063 3.256-.5 5.01-1.878 5.886-2.817 0 1.377.062 2.692.062 2.692h5.01c-.376-.814-.439-2.504-.439-3.944zM94.23 30.68v-4.884h-5.008c-.125 1.252-.626 2.504-1.565 3.381-.063.063-.126.063-.188.125-.752.814-2.13 1.378-3.694 1.503-.188 0-.439.063-.627.063-2.817 0-4.445-.94-5.134-2.004a5.195 5.195 0 01-.375-1.315v-.376-.125c0-.25 0-.438.062-.689.313-1.064 1.19-1.628 2.818-2.003 4.696-1.065 12.773-.25 12.773-8.077 0-4.195-3.632-7.45-10.331-7.45-8.39 0-9.768 5.008-9.956 7.45h4.947c.25-2.63 2.316-3.444 5.197-3.444 2.003 0 5.196.626 5.196 3.194 0 1.502-1.001 2.316-2.63 2.692-1.377.375-3.067.5-4.758.814-.5.062-.94.125-1.377.188-.877.125-1.941.438-3.068.939-1.941.876-3.444 2.254-3.82 4.82-.062.502-.125 1.003-.125 1.566 0 .188 0 .376.063.564.25 4.695 3.82 7.325 8.515 7.325.689 0 1.377-.062 1.94-.125.189 0 .627-.063.627-.063 3.256-.5 5.009-1.878 5.886-2.817 0 1.377.062 2.692.062 2.692h5.01c-.377-.814-.44-2.504-.44-3.944zM93.667 10.205v-.877h3.82v.877h-1.378v3.756h-1.002v-3.756h-1.44zm5.698-.877l1.064 3.193 1.002-3.193h1.44v4.633h-.876v-3.255l-1.127 3.255h-.814l-1.127-3.255v3.255h-.94V9.328h1.378z" fill="#0C0808"></path>
                    </svg>