<svg xmlns:xlink="http://www.w3.org/1999/xlink" version="1.0" xmlns="http://www.w3.org/2000/svg" width="350" height="75.99" viewBox="0 0 2372.000000 515.000000" preserveAspectRatio="xMidYMid meet"><g transform="translate(0.000000,515.000000) scale(0.100000,-0.100000)" fill="#000000" stroke="none"><path d="M3522 5105 c2 -2 45 -25 97 -50 296 -149 541 -433 645 -750 54 -165
58 -200 63 -522 3 -167 8 -303 11 -303 4 0 185 178 402 396 l395 395 -88 85
c-332 319 -815 583 -1277 698 -106 26 -254 57 -248 51z"></path><path d="M2370 5074 c-549 -126 -1045 -400 -1440 -794 -424 -423 -705 -944
-820 -1520 -46 -231 -55 -332 -54 -610 0 -209 5 -281 23 -400 75 -499 250
-931 539 -1334 62 -86 219 -272 273 -323 l35 -33 399 400 400 400 5 1623 c5
1621 5 1622 27 1702 12 44 34 114 49 155 108 301 337 560 629 712 104 55 92
59 -65 22z"></path><path d="M3660 3461 c-75 -24 -137 -79 -167 -146 -16 -35 -18 -79 -21 -370
l-3 -330 232 230 c146 146 238 245 250 270 23 50 25 151 3 203 -19 47 -68 98
-118 124 -43 22 -136 32 -176 19z"></path><path d="M3965 1786 c-234 -46 -410 -205 -460 -417 -36 -156 -2 -292 107 -414
58 -64 129 -117 285 -209 61 -36 121 -78 132 -92 31 -40 28 -87 -10 -118 -41
-34 -66 -40 -163 -34 -95 7 -206 46 -304 108 -34 22 -65 40 -67 40 -3 0 -5
-106 -5 -236 l0 -235 65 -30 c153 -69 348 -106 505 -95 370 26 606 207 627
482 10 129 -30 237 -126 337 -66 70 -133 117 -257 181 -181 93 -246 185 -178
253 24 24 30 25 102 21 111 -7 172 -40 299 -162 l103 -99 0 264 -1 264 -47 38
c-66 52 -184 112 -272 137 -96 27 -243 34 -335 16z"></path><path d="M10730 1791 c-50 -16 -88 -41 -120 -77 -60 -68 -60 -72 -60 -436 l0
-333 224 225 c142 143 232 241 246 270 27 52 31 134 11 194 -17 49 -73 112
-125 138 -43 22 -136 32 -176 19z"></path><path d="M13340 1784 c-332 -53 -596 -225 -724 -473 -58 -112 -86 -219 -93
-357 -18 -349 120 -608 408 -763 284 -153 658 -179 1117 -77 l97 21 3 453 2
452 -325 0 -325 0 2 -197 3 -198 83 -3 82 -3 0 -65 0 -66 -112 4 c-99 3 -121
7 -175 32 -77 35 -154 113 -190 193 -23 49 -28 76 -31 169 -7 166 28 266 123
353 93 86 215 127 370 124 175 -2 333 -47 433 -123 l52 -40 0 220 0 219 -27
15 c-54 27 -180 68 -283 92 -138 32 -353 40 -490 18z"></path><path d="M15055 1789 c-176 -18 -368 -93 -509 -200 -133 -101 -241 -269 -287
-444 -26 -97 -31 -315 -10 -410 65 -300 275 -526 586 -632 406 -138 880 11
1101 349 157 239 177 603 48 861 -133 264 -410 442 -744 477 -52 5 -97 9 -100
8 -3 0 -41 -4 -85 -9z m199 -539 c115 -44 178 -156 179 -320 2 -224 -99 -351
-280 -351 -121 -1 -200 50 -252 161 -24 50 -26 66 -26 185 0 122 2 134 28 187
65 133 210 190 351 138z"></path><path d="M22616 1790 c-288 -46 -538 -203 -667 -420 -172 -290 -151 -696 49
-961 185 -243 541 -389 857 -349 353 43 635 242 751 528 49 121 59 178 58 337
0 180 -14 244 -84 391 -105 218 -318 381 -588 450 -110 28 -281 39 -376 24z
m258 -545 c120 -58 183 -216 157 -391 -19 -131 -70 -206 -170 -252 -45 -21
-64 -24 -125 -20 -114 8 -191 60 -238 163 -20 44 -23 65 -23 180 0 115 3 136
23 180 30 65 75 112 137 142 42 20 62 23 125 21 47 -3 89 -11 114 -23z"></path><path d="M16610 1783 c-152 -25 -326 -140 -397 -260 -62 -106 -92 -242 -74
-340 32 -170 140 -288 409 -443 90 -51 138 -92 146 -125 9 -35 -17 -79 -58
-99 -44 -21 -149 -21 -229 0 -59 15 -183 73 -241 113 -17 11 -33 18 -36 16 -4
-3 -7 -107 -6 -232 l1 -228 65 -32 c156 -78 363 -114 541 -94 311 34 516 175
574 396 27 105 14 219 -36 317 -48 95 -173 198 -345 287 -141 72 -202 140
-189 207 9 49 50 68 132 61 100 -8 179 -52 292 -164 52 -51 96 -93 98 -93 2 0
3 117 3 260 l0 260 -49 38 c-71 56 -195 117 -285 141 -76 20 -238 27 -316 14z"></path><path d="M4995 998 c-192 -431 -363 -816 -382 -855 l-32 -73 332 0 332 0 54
130 54 130 291 -2 290 -3 47 -125 47 -125 326 -3 c179 -1 326 1 326 5 0 5
-161 389 -357 855 l-358 848 -311 0 -310 0 -349 -782z m734 -163 l59 -140 -69
-3 c-38 -2 -100 -2 -138 0 l-68 3 54 125 c94 216 84 198 94 175 5 -11 36 -83
68 -160z"></path><path d="M6740 925 l0 -855 315 0 315 0 2 391 3 390 358 -390 358 -391 274 0
275 0 0 855 0 855 -315 0 -315 0 -2 -389 -3 -390 -355 389 -355 390 -277 0
-278 0 0 -855z"></path><path d="M8732 1538 l3 -243 248 -3 247 -2 0 -610 0 -610 320 0 320 0 0 610 0
610 243 2 242 3 3 243 2 242 -815 0 -815 0 2 -242z"></path><path d="M11035 998 c-192 -431 -363 -816 -382 -855 l-32 -73 332 0 332 0 54
130 54 130 291 -2 290 -3 47 -125 47 -125 326 -3 c179 -1 326 1 326 5 0 5
-161 389 -357 855 l-358 848 -311 0 -311 0 -348 -782z m734 -163 l60 -140 -70
-3 c-38 -2 -100 -2 -138 0 l-68 3 49 115 c89 208 89 208 99 185 5 -11 35 -83
68 -160z"></path><path d="M17362 1538 l3 -243 248 -3 247 -2 0 -610 0 -610 320 0 320 0 0 610
0 610 245 0 245 0 0 245 0 245 -815 0 -815 0 2 -242z"></path><path d="M19090 925 l0 -855 315 0 315 0 0 855 0 855 -315 0 -315 0 0 -855z"></path><path d="M19850 925 l0 -855 315 0 315 0 2 392 3 392 360 -392 360 -392 277 0
278 0 0 855 0 855 -320 0 -320 0 -2 -387 -3 -387 -354 387 -354 387 -278 0
-279 0 0 -855z"></path></g></svg>