<?xml version="1.0" encoding="utf-8"?>
<!-- Generator: Adobe Illustrator 16.0.0, SVG Export Plug-In . SVG Version: 6.00 Build 0)  -->
<!DOCTYPE svg PUBLIC "-//W3C//DTD SVG 1.1//EN" "http://www.w3.org/Graphics/SVG/1.1/DTD/svg11.dtd">
<svg version="1.1" id="Layer_1" xmlns="http://www.w3.org/2000/svg" xmlns:xlink="http://www.w3.org/1999/xlink" x="0px" y="0px"
	 width="1280px" height="212.722px" viewBox="0 0 1280 212.722" enable-background="new 0 0 1280 212.722" xml:space="preserve">
<path fill="#1D1D1B" d="M1214.803,0.93c-35.497,0-64.295,27.13-64.295,60.761c0,34.746,28.24,62.437,63.735,62.437
	c35.861,0,63.733-27.317,63.733-62.437C1277.977,28.429,1249.359,0.93,1214.803,0.93 M1213.493,17.094
	c26.947,0,47.757,19.699,47.757,45.338c0,24.717-20.81,45.155-45.895,45.155c-27.131,0-48.306-19.694-48.306-45.155
	C1167.05,37.35,1187.855,17.094,1213.493,17.094 M1033.439,4.648v15.793h27.5v99.78h15.613v-99.78h27.497V4.648H1033.439z
	 M878.473,0v120.221h15.792V38.095l85.477,87.521V4.648h-15.793v83.246L878.473,0z M759.553,4.648v115.573h64.104v-15.606H775.16
	V64.85h48.497V49.239H775.16V20.441h48.497V4.648H759.553z M704.923,8.548c-13.559-5.574-23.224-7.618-35.118-7.618
	c-35.306,0-63.92,27.315-63.92,61.134c0,34.373,28.987,62.063,65.034,62.063c13.194,0,22.486-2.419,34.004-8.367V97.738
	c-12.817,7.064-21.925,9.664-32.696,9.664c-28.25,0-49.432-19.141-49.432-45.153c0-25.456,20.812-44.966,47.75-44.966
	c11.154,0,20.819,2.6,34.378,9.104V8.548z M491.61,4.648v115.573h64.107v-15.606H507.22V64.85h48.498V49.239H507.22V20.441h48.498
	V4.648H491.61z M367.3,4.648v15.793h27.501v99.78h15.611v-99.78h27.497V4.648H367.3z M248.754,4.648v15.793h27.497v99.78h15.61
	v-99.78h27.503V4.648H248.754z M135.964,4.648v115.573h64.106v-15.606h-48.499V64.85h48.499V49.239h-48.499V20.441h48.499V4.648
	H135.964z M77.804,17.467c-5.202-6.132-7.618-8.174-13.567-11.15C57.551,2.789,49.743,0.93,42.499,0.93
	C23.545,0.93,8.31,14.125,8.31,30.846c0,7.618,2.785,14.125,9.104,20.809c7.806,6.876,10.407,8.366,22.484,13.195
	c9.476,3.901,13.751,6.318,17.279,9.849c4.459,4.275,7.06,9.662,7.06,14.494c0,10.593-8.544,18.209-20.064,18.209
	c-12.266,0-20.258-5.948-26.386-19.509L1.992,92.353c3.902,9.477,6.13,13.192,10.962,18.396
	c8.548,8.918,19.137,13.379,31.776,13.379c19.882,0,35.858-15.426,35.858-34.751c0-9.291-3.342-17.65-10.218-24.896
	c-8.919-7.805-11.892-9.664-25.455-15.426c-14.867-6.316-20.252-11.149-20.252-18.02c0-8.178,7.802-13.751,19.137-13.751
	c8.917,0,12.819,1.859,21.185,10.403L77.804,17.467z"/>
<path fill="#1D1D1B" d="M1261.282,174.401l-16.522,36.678h5.002l4.027-9.031h14.988l4.144,9.031h5.053L1261.282,174.401z
	 M1261.282,185.474l5.681,12.554h-11.36L1261.282,185.474z M1205.624,176.957c-4.155-1.701-7.105-2.326-10.736-2.326
	c-10.791,0-19.528,8.342-19.528,18.677c0,10.508,8.852,18.958,19.867,18.958c4.029,0,6.871-0.733,10.397-2.548v-5.509
	c-3.925,2.158-6.708,2.96-10.002,2.96c-8.626,0-15.102-5.851-15.102-13.806c0-7.779,6.358-13.74,14.589-13.74
	c3.409,0,6.359,0.793,10.515,2.78V176.957z M1127.821,211.079h4.759v-35.316h-4.759V211.079z M1076.464,174.293l-10.96,26.338
	l-11.069-26.338l-9.652,36.786h4.72l5.904-22.655h0.105l9.992,24.014l9.937-23.84h0.113l5.848,22.481h4.712L1076.464,174.293z
	 M989.461,174.401l-16.522,36.678h4.993l4.031-9.031h14.992l4.146,9.031h5.051L989.461,174.401z M989.461,185.474l5.685,12.554
	h-11.363L989.461,185.474z M911.885,175.768v35.312h4.815v-14.54h1.081l9.828,14.54h5.503l-10.275-15.104
	c3.072-0.793,4.32-1.305,5.904-2.56c2.386-1.868,3.688-4.483,3.688-7.547c0-5.963-5.272-10.102-12.888-10.102H911.885z
	 M916.7,180.019c3.751,0,5.345,0.171,7.104,0.854c2.33,0.91,3.58,2.78,3.58,5.277c0,2.443-1.304,4.316-3.752,5.28
	c-1.646,0.679-3.236,0.853-6.933,0.909V180.019z M849.12,175.768v35.312h19.59v-4.766h-14.825v-12.158h14.825v-4.762h-14.825v-8.806
	h14.825v-4.82H849.12z M807.022,176.957c-4.145-1.701-7.1-2.326-10.729-2.326c-10.792,0-19.522,8.342-19.522,18.677
	c0,10.508,8.849,18.958,19.862,18.958c4.028,0,6.87-0.733,10.39-2.548v-5.509c-3.919,2.158-6.701,2.96-9.991,2.96
	c-8.631,0-15.105-5.851-15.105-13.806c0-7.779,6.362-13.74,14.595-13.74c3.402,0,6.357,0.793,10.502,2.78V176.957z M680.697,174.401
	l-16.522,36.678h4.996l4.032-9.031h14.988l4.146,9.031h5.059L680.697,174.401z M680.697,185.474l5.679,12.554h-11.354
	L680.697,185.474z M603.123,175.768v35.312h4.816v-14.54h1.081l9.829,14.54h5.501l-10.275-15.104c3.07-0.793,4.318-1.305,5.905-2.56
	c2.383-1.868,3.688-4.483,3.688-7.547c0-5.963-5.275-10.102-12.89-10.102H603.123z M607.939,180.019c3.75,0,5.342,0.171,7.102,0.854
	c2.33,0.91,3.579,2.78,3.579,5.277c0,2.443-1.303,4.316-3.751,5.28c-1.646,0.679-3.235,0.853-6.93,0.909V180.019z M531.161,175.768
	v20.931c0,5.636,1.192,8.985,4.141,11.942c2.499,2.494,5.507,3.625,9.709,3.625c8.236,0,13.568-5.558,13.568-14.26v-22.238h-4.821
	v22.578c0,5.861-3.237,9.271-8.914,9.271c-5.684,0-8.863-3.696-8.863-10.121v-21.729H531.161z M467.552,175.768v4.82h8.401v30.491
	h4.762v-30.491h8.404v-4.82H467.552z M405.923,175.768v4.82h8.403v30.491h4.766v-30.491h8.404v-4.82H405.923z M353.04,174.401
	l-16.524,36.678h5l4.03-9.031h14.987l4.146,9.031h5.052L353.04,174.401z M353.04,185.474l5.677,12.554H347.36L353.04,185.474z
	 M279.553,175.768v35.312h4.816v-16.924h14.764v-4.762h-14.821v-8.806h14.821v-4.82H279.553z M230.705,211.079h4.763v-35.316h-4.763
	V211.079z M155.848,174.346v36.733h4.816v-25.094l26.12,26.736v-36.954h-4.818v25.429L155.848,174.346z M98.251,174.401
	l-16.522,36.678h4.993l4.031-9.031h14.992l4.141,9.031h5.057L98.251,174.401z M98.251,185.474l5.675,12.554H92.574L98.251,185.474z
	 M33.671,174.293l-10.956,26.338l-11.073-26.338l-9.653,36.786H6.7l5.906-22.655h0.117l9.992,24.014l9.936-23.84h0.111l5.85,22.481
	h4.712L33.671,174.293z"/>
</svg>
