<svg xmlns="http://www.w3.org/2000/svg" id="LOGO_SITIA__05" data-name="LOGO SITIA+_05" width="1204" height="402.306" viewBox="0 0 1204 402.306"><path id="Tracciato_1" data-name="Tracciato 1" d="M1676.755,3.5c30.156,0,51.618,15.078,51.618,49.247s-17.389,51.618-49.855,51.618S1626.9,77.675,1626.9,54.51c0-28.393,17.388-51.01,49.855-51.01Z" transform="translate(-637.763 -1.372)" fill="#fff"></path><path id="Tracciato_2" data-name="Tracciato 2" d="M1863.255,3.5c30.156,0,51.618,15.078,51.618,49.247s-17.389,51.618-49.855,51.618S1813.4,77.675,1813.4,54.51c0-28.393,17.388-51.01,49.855-51.01Z" transform="translate(-710.873 -1.372)" fill="#fff"></path><path id="Tracciato_3" data-name="Tracciato 3" d="M194.374,290.566h-6.627c-19.942-50.949-48.153-71.986-87.49-71.986s-51.5,14.957-51.5,32.1c0,25.475,33.2,31.555,69.8,41.526,43.714,11.613,92.475,29.366,92.475,94.664s-40.978,94.664-103.54,94.664H0v-99.1H6.627c20.489,67.547,54.293,86.942,99.71,86.942s56.482-14.956,56.482-35.993-27.116-30.46-69.25-42.073C49.308,379.15,0,362,0,300.537S38.607,204.9,97.339,204.9H194.5" transform="translate(0 -80.323)" fill="#fff"></path><path id="Tracciato_4" data-name="Tracciato 4" d="M470.6,204.9V471.138H501.61V481.6H337.15V471.138h30.46V215.357H334.9V204.9H470.542Z" transform="translate(-131.285 -80.323)" fill="#fff"></path><path id="Tracciato_5" data-name="Tracciato 5" d="M1092,204.9V471.138h31.007V481.6H958.549V471.138h30.46V215.357H956.3V204.9h135.643Z" transform="translate(-374.88 -80.323)" fill="#fff"></path><path id="Tracciato_6" data-name="Tracciato 6" d="M617.36,134.852H586.9v-9.91h30.46V103.115L720.354,0V124.881h81.227v9.91H720.354V320.775c0,32.527,4.985,50.22,24.38,50.22s43.167-24.259,48.153-61.772l9.424,1.094c-4.985,43.046-23.225,91.989-90.833,91.989s-94.117-25.232-94.117-93.63V134.852Z" transform="translate(-230.071)" fill="#fff"></path><path id="Tracciato_7" data-name="Tracciato 7" d="M1365.325,345.586v-42.62c0-70.344-6.08-88.584-28.272-88.584s-26.022,4.438-26.022,22.131,1.095,9.971,3.344,16.051h13.862a65.317,65.317,0,0,1,4.439,24.928c0,26.022-21.036,43.167-48.7,43.167s-47.605-18.848-47.605-45.964c0-46.511,40.431-68.095,115.7-68.095s116.308,24.38,116.308,104.635V423.652c0,22.678,6.627,28.819,16.051,28.819s19.4-10.518,22.131-57.029l8.329.547c-2.8,66.453-23.225,85.24-70.891,85.24s-69.8-13.862-76.424-40.978c-8.876,26.569-24.927,40.978-63.717,40.978s-81.957-11.613-81.957-67,48.153-68.642,127.313-68.642h16.051Zm0,60.373v-51.5h-3.891c-23.286,0-34.351,16.6-34.351,50.4v8.877c0,39.823,3.891,45.417,14.41,45.417s23.833-17.692,23.833-53.138Z" transform="translate(-478.999 -80.99)" fill="#fff"></path></svg>