<svg width="350" height="70.81" viewBox="0 0 173 35" version="1.1" xmlns="http://www.w3.org/2000/svg" xmlns:xlink="http://www.w3.org/1999/xlink">
            <g id="symbols" stroke="none" stroke-width="1" fill="none" fill-rule="evenodd">
                <g id="header/main" transform="translate(-684.000000, -28.000000)" fill="#FFFFFF">
                    <path d="M854.310164,62.5555903 L856.906568,62.5555903 L856.906568,28.4367475 L854.310164,28.4367475 L854.310164,62.5555903 Z M845.235887,28.4389367 L833.408679,57.3069586 L821.505942,28.4389367 L818.884363,28.4389367 L833.023925,62.9031274 L833.766067,62.9031274 L847.83448,28.4389367 L845.235887,28.4389367 Z M796.089758,28.4389367 L796.089758,62.5555903 L814.792181,62.5555903 L814.792181,60.3636435 L798.681783,60.3636435 L798.681783,46.5130571 L814.000235,46.5130571 L814.000235,44.2915559 L798.681783,44.2915559 L798.681783,30.6358092 L814.405786,30.6358092 L814.405786,28.4389367 L796.089758,28.4389367 Z M768.43018,62.5594214 L771.030962,62.5594214 L771.030962,46.6082877 L777.44699,46.6082877 C781.116106,46.6082877 783.896951,45.7900704 785.787881,44.1459734 C787.697967,42.4980453 788.651368,40.2710711 788.651368,37.450821 C788.647537,34.6699765 787.702346,32.4687256 785.811962,30.8552776 C783.935809,29.2451134 781.226661,28.4367475 777.687803,28.4367475 L768.43018,28.4367475 L768.43018,62.5594214 Z M777.591478,30.6358092 C780.250821,30.6358092 782.294449,31.2569977 783.720719,32.4928069 C785.144801,33.7308053 785.863409,35.3995309 785.863409,37.5017201 C785.863409,39.6980453 785.133307,41.401251 783.673104,42.6053167 C782.212353,43.8082877 780.081704,44.4108679 777.279515,44.4108679 L771.030962,44.4108679 L771.030962,30.6358092 L777.591478,30.6358092 Z M741.930336,28.4389367 L741.930336,62.5555903 L760.634949,62.5555903 L760.634949,60.3636435 L744.523456,60.3636435 L744.523456,46.5130571 L759.836435,46.5130571 L759.836435,44.2915559 L744.523456,44.2915559 L744.523456,30.6358092 L760.250195,30.6358092 L760.250195,28.4389367 L741.930336,28.4389367 Z M707.493511,28.4389367 L707.493511,30.6358092 L720.089679,30.6358092 L720.089679,62.5555903 L722.711806,62.5555903 L722.711806,30.6358092 L735.311806,30.6358092 L735.311806,28.4389367 L707.493511,28.4389367 Z M701.427209,30.1448788 L701.427209,33.0576231 C698.508991,31.3111806 696.000704,30.4426114 693.899062,30.4426114 C691.881704,30.4426114 690.195465,31.0681783 688.829945,32.3225958 C687.486317,33.5578577 686.80821,35.0985145 686.80821,36.9374511 C686.80821,38.2586396 687.208835,39.4457389 688.006802,40.5036747 C688.812979,41.5643471 690.487725,42.5817826 693.032682,43.5570758 C695.586396,44.5334636 697.443941,45.346208 698.611884,45.9985927 C699.779828,46.6509773 700.776466,47.5956216 701.593041,48.839093 C702.412901,50.0716185 702.820641,51.6763096 702.820641,53.6455043 C702.820641,56.2681783 701.876544,58.4803753 699.985066,60.288663 C698.0914,62.0964034 695.783425,63 693.062236,63 C690.266615,63 687.404222,62.0077404 684.453714,60.0210321 L684.453714,56.9183737 C687.709617,59.3440188 690.530962,60.5557467 692.912275,60.5557467 C694.899531,60.5557467 696.580844,59.9055512 697.940344,58.6029711 C699.317357,57.2856138 700.006959,55.6727131 700.006959,53.7681001 C700.006959,52.3215794 699.581704,51.0157154 698.733933,49.860907 C697.883425,48.6896794 696.157232,47.5956216 693.56466,46.5847537 C690.967162,45.5771697 689.109617,44.7655199 687.98491,44.1437842 C686.88319,43.524785 685.934167,42.647459 685.152619,41.5063331 C684.380375,40.35043 684,38.8688819 684,37.0611415 C684,34.5555903 684.944097,32.4227522 686.835575,30.6604378 C688.724316,28.8849883 691.004926,28 693.662627,28 C696.272713,28 698.859812,28.718061 701.427209,30.1448788 L701.427209,30.1448788 Z" id="logo" fill="#FFFFFF"></path>
                </g>
            </g>
        </svg>