<?xml version="1.0" encoding="utf-8"?>
<!-- Generator: Adobe Illustrator 16.0.0, SVG Export Plug-In . SVG Version: 6.00 Build 0)  -->
<!DOCTYPE svg PUBLIC "-//W3C//DTD SVG 1.1//EN" "http://www.w3.org/Graphics/SVG/1.1/DTD/svg11.dtd">
<svg version="1.1" id="Livello_1" xmlns="http://www.w3.org/2000/svg" xmlns:xlink="http://www.w3.org/1999/xlink" x="0px" y="0px"
	 width="151.333px" height="36.333px" viewBox="0 0 151.333 36.333" enable-background="new 0 0 151.333 36.333"
	 xml:space="preserve">
<path fill="#1E1E1C" d="M0,17.827c0,9.836,7.987,17.828,17.812,17.828c9.84,0,17.826-7.992,17.826-17.828
	C35.638,8.009,27.652,0,17.812,0C7.987,0,0,8.009,0,17.827 M4.464,17.827c0-7.339,5.986-13.364,13.348-13.364
	c7.377,0,13.379,6.025,13.379,13.364c0,7.376-6.002,13.379-13.379,13.379C10.45,31.206,4.464,25.203,4.464,17.827"/>
<path fill="#1E1E1C" d="M70.155,27.955c-0.476,0-0.537-0.041-0.537-1.072v-6.008c0-3.314-2.423-5.293-6.482-5.293
	c-3.908,0-6.244,2.45-6.244,4.818v0.255l3.652,0.755l0.033-0.238c0.104-1.228,1.169-2.053,2.648-2.053
	c2.131,0,2.47,1.197,2.498,2.171c-0.325,0.163-1.466,0.237-2.32,0.292c-0.69,0.046-1.473,0.097-2.244,0.19
	c-1.175,0.156-5.011,0.976-5.011,4.962c0,3.033,2.001,4.846,5.352,4.846c1.834,0,3.818-0.921,4.745-1.87
	c0.446,1.054,1.52,1.641,3.043,1.641c0.475,0,0.97-0.056,1.472-0.167l0.314-0.068l-0.654-3.161H70.155z M61.916,28.222
	c-0.682,0-1.253-0.276-1.567-0.757c-0.287-0.442-0.324-1.011-0.101-1.515c0.139-0.295,0.551-0.822,1.751-1.037
	c0.499-0.081,1.021-0.149,1.521-0.215c0.875-0.113,1.662-0.215,2.205-0.372v0.8C65.725,26.834,64.017,28.222,61.916,28.222"/>
<polygon fill="#1E1E1C" points="56.17,11.168 40.065,11.168 40.065,16.019 45.835,16.019 45.835,31.215 50.4,31.215 50.4,16.019 
	56.17,16.019 "/>
<path fill="#1E1E1C" d="M124.651,10.296c-1.271,0-2.307,1.023-2.307,2.28c0,1.271,1.035,2.305,2.307,2.305
	c1.257,0,2.279-1.034,2.279-2.305C126.93,11.297,125.929,10.296,124.651,10.296"/>
<rect x="122.601" y="16.018" fill="#1E1E1C" width="4.071" height="15.175"/>
<path fill="#1E1E1C" d="M137.752,15.612c-1.384,0-3.278,0.838-3.927,2.157v-1.75h-4.042v15.175h4.071v-7.837
	c0-2.877,0.808-4.358,3.036-4.358c1.907,0,2.167,1.706,2.167,3.056v9.139h4.07V21.046C143.128,17.732,141.03,15.612,137.752,15.612"
	/>
<path fill="#1E1E1C" d="M113.971,15.612c-1.382,0-3.278,0.838-3.926,2.157v-6.597h-4.043v20.022h4.072v-7.837
	c0-2.877,0.806-4.358,3.036-4.358c1.906,0,2.167,1.706,2.167,3.056v9.139h4.068V21.046
	C119.346,17.732,117.249,15.612,113.971,15.612"/>
<rect x="145.67" y="16.018" fill="#1E1E1C" width="4.071" height="15.175"/>
<path fill="#1E1E1C" d="M147.72,10.296c-1.271,0-2.307,1.023-2.307,2.28c0,1.271,1.035,2.305,2.307,2.305
	c1.257,0,2.279-1.034,2.279-2.305C150,11.297,148.999,10.296,147.72,10.296"/>
<path fill="#1E1E1C" d="M80.23,28.042c-2.258,0-3.834-1.835-3.834-4.462c0-2.628,1.576-4.463,3.834-4.463
	c1.559,0,2.806,1.058,3.254,2.761l3.662-1.698l-0.098-0.257c-1.031-2.678-3.678-4.342-6.907-4.342c-4.616,0-7.845,3.287-7.874,7.999
	c0.029,4.712,3.259,7.999,7.874,7.999c3.229,0,5.876-1.666,6.907-4.343l0.098-0.256l-3.662-1.699
	C83.036,26.985,81.789,28.042,80.23,28.042"/>
<path fill="#1E1E1C" d="M96.965,28.042c-2.26,0-3.837-1.835-3.837-4.462c0-2.628,1.577-4.463,3.837-4.463
	c1.559,0,2.805,1.058,3.254,2.761l3.662-1.698l-0.098-0.257c-1.032-2.678-3.679-4.342-6.907-4.342c-4.62,0-7.85,3.287-7.877,7.999
	c0.029,4.712,3.258,7.999,7.877,7.999c3.229,0,5.875-1.666,6.907-4.343l0.098-0.256l-3.662-1.699
	C99.77,26.985,98.524,28.042,96.965,28.042"/>
<polygon fill="#1E1E1C" points="20.36,16.019 20.36,26.723 17.826,31.172 15.264,26.723 15.279,16.019 9.112,16.019 6.253,11.172 
	29.399,11.172 26.58,16.019 "/>
</svg>
