<?xml version="1.0" encoding="UTF-8"?>
<!-- Generator: Adobe Illustrator 28.1.0, SVG Export Plug-In . SVG Version: 6.00 Build 0)  -->
<svg xmlns="http://www.w3.org/2000/svg" xmlns:xlink="http://www.w3.org/1999/xlink" version="1.1" id="Livello_1" x="0px" y="0px" viewBox="0 0 458.2 117.2" style="enable-background:new 0 0 458.2 117.2;" xml:space="preserve">
<style type="text/css">
	.st0{fill:#FFFFFF;}
</style>
<path class="st0" d="M408.9,73.1h15.9V37.7c3.6-3.1,7.2-5.2,11.5-5.2c4.4,0,6.2,2.5,6.2,7.2v33.4h15.8V34.7  c0-10.9-6.4-15.3-15.3-15.3c-9.2,0-15,5.2-18.2,9.4v-8.3h-15.9V73.1z M381.3,73.1h15.8V20.4h-15.8V73.1z M381.2,13.2h16V0.5h-16  V13.2z M320.6,73.1h15.9V37.7c3.6-3.1,7.2-5.2,11.6-5.2s6.1,2.5,6.1,7.2v33.4h15.9V34.7c0-10.9-6.4-15.3-15.4-15.3  c-9.2,0-15,5.2-18.2,9.4V0h-15.9L320.6,73.1z M289.8,74.2c13.9,0,20.5-7.8,23.8-16l-13.1-4.5c-2.3,7.1-6.1,9.4-10.4,9.4  c-7.3,0-10.3-6.7-10.3-16.1c0-10.5,4.1-15.9,10.5-15.9c4.6,0,7.7,2.2,9.8,8.9l13.3-4.4c-3.1-8.5-8.6-16.1-22.9-16.1  c-11.7,0-26.6,6.4-26.6,27.5C263.9,67.3,277.5,74.2,289.8,74.2 M236.4,74.2c12.1,0,23.2-5,23.2-17.8c0-12-11-14.3-21.3-16.1  c-6.5-1.2-9.4-2.5-9.4-5.6c0-2.9,2.6-4.6,7.1-4.6c4.9,0,10.2,2.1,15.5,5.7l6.2-9c-5.8-4.6-12.3-7.4-23.1-7.4  c-11.8,0-20.4,6.1-20.4,16.7c0,12.3,10.7,14.7,20.6,16.5c7.2,1.3,10,2.7,10,6.3c0,3.5-3.5,5.1-8.4,5.1c-6.7-0.1-13.1-2.5-18.3-6.8  l-6.3,8.9C217.1,70.6,224.8,74.2,236.4,74.2 M177.5,61.9c-3.5,0-5.8-1.7-5.8-5c0-4.8,5.3-8,17.9-9.3v9.8  C186.9,60.1,183,61.9,177.5,61.9 M171.2,73.9c7.8,0,13.5-3.1,18.4-8.5c0,2.6,0.4,5.2,1.2,7.7h15.8c-1.1-2.7-1.5-6.5-1.5-12.8V40  c0-13.5-5.9-20.6-20.4-20.6c-13.1,0-21,4.6-26.3,9.4l6.7,9.1c4.8-3.8,10.6-6.5,17.3-6.5c5.1,0,7.1,2.5,7.1,6.3v1.3  c-23.1,1.9-33.4,8.6-33.4,20.7C156.2,68.7,163.1,73.9,171.2,73.9 M120.4,73.1h15.9V40.4c3.3-4.5,8.5-7.2,14-7.2c1,0,3.6,0.2,4.1,0.3  l0.2-14.1h-0.5c-9.9,0-14.9,5.4-17.8,9.9h-0.1v-8.8h-15.9L120.4,73.1z M82.3,61.9c-3.5,0-5.8-1.7-5.8-5c0-4.8,5.3-8,17.9-9.3v9.8  C91.7,60.1,87.8,61.9,82.3,61.9 M76,73.9c7.8,0,13.5-3.1,18.4-8.5c0,2.6,0.4,5.2,1.2,7.7h15.8c-1.1-2.7-1.5-6.5-1.5-12.8V40  c0-13.5-5.9-20.6-20.3-20.6c-13.1,0-21,4.6-26.3,9.4l6.7,9.1c4.8-3.8,10.6-6.5,17.3-6.5c5.1,0,7.1,2.5,7.1,6.3v1.3  c-23.1,1.9-33.4,8.6-33.4,20.7C60.9,68.7,67.9,73.9,76,73.9 M25.2,73.4h15.2L65.6,0H50.5L33.2,52.3H33L16.3,0H0L25.2,73.4z"></path>
<path class="st0" d="M170.6,114.8c-3.3,3.2-8.6,3.2-11.9,0c-2.2-2.2-2.2-4.5-2.2-9.4s0-7.2,2.2-9.4c3.3-3.2,8.6-3.2,11.9,0  c2.2,2.2,2.2,4.5,2.2,9.4S172.8,112.6,170.6,114.8z M168.6,97.4c-2.2-2.2-5.8-2.2-8,0c0,0,0,0,0,0c-1.5,1.5-1.6,3.1-1.6,8  s0.2,6.4,1.6,8c2.2,2.2,5.8,2.2,8,0c0,0,0,0,0,0c1.5-1.5,1.6-3.1,1.6-8S170.1,98.9,168.6,97.4L168.6,97.4z"></path>
<path class="st0" d="M187.1,117.2c-4.7,0-8.1-3.2-8.1-7.9V93.7h2.5v15.4c0,3.5,2.2,5.9,5.6,5.9s5.7-2.3,5.7-5.9V93.7h2.5v15.6  C195.2,114,191.8,117.2,187.1,117.2z"></path>
<path class="st0" d="M209.1,96V117h-2.5V96h-6.7v-2.2h16V96H209.1z"></path>
<path class="st0" d="M234.8,114.9c-1.6,1.5-3.7,2.3-5.9,2.2h-8V93.7h8c2.2-0.1,4.3,0.7,5.9,2.2c2.4,2.4,2.3,6,2.3,9.2  S237.2,112.5,234.8,114.9z M233,97.7c-1.2-1.2-2.9-1.8-4.6-1.7h-5.1v18.9h5.1c1.7,0.1,3.4-0.5,4.6-1.7c1.6-1.7,1.5-5.1,1.5-8  S234.6,99.3,233,97.7L233,97.7z"></path>
<path class="st0" d="M256.8,114.8c-3.3,3.2-8.6,3.2-11.9,0c-2.2-2.2-2.2-4.5-2.2-9.4s0-7.2,2.2-9.4c3.3-3.2,8.6-3.2,11.9,0  c2.2,2.2,2.2,4.5,2.2,9.4S259,112.6,256.8,114.8z M254.9,97.4c-2.2-2.2-5.8-2.2-8,0c0,0,0,0,0,0c-1.5,1.5-1.6,3.1-1.6,8  s0.2,6.4,1.6,8c2.2,2.2,5.8,2.2,8,0c0,0,0,0,0,0c1.5-1.5,1.6-3.1,1.6-8S256.3,98.9,254.9,97.4L254.9,97.4z"></path>
<path class="st0" d="M278.7,114.8c-3.3,3.2-8.6,3.2-11.9,0c-2.2-2.2-2.2-4.5-2.2-9.4s0-7.2,2.2-9.4c3.3-3.2,8.6-3.2,11.9,0  c2.2,2.2,2.2,4.5,2.2,9.4S280.9,112.6,278.7,114.8z M276.8,97.4c-2.2-2.2-5.8-2.2-8,0c0,0,0,0,0,0c-1.5,1.5-1.6,3.1-1.6,8  s0.2,6.4,1.6,8c2.2,2.2,5.8,2.2,8,0c0,0,0,0,0,0c1.5-1.5,1.6-3.1,1.6-8S278.3,98.9,276.8,97.4z"></path>
<path class="st0" d="M300.8,117l-5.3-10.3h-5.6V117h-2.5V93.7h8.9c4.1,0,6.9,2.5,6.9,6.5c0.1,3.1-2,5.8-5.1,6.3l5.5,10.6H300.8z   M296.1,96h-6.2v8.5h6.2c2.7,0,4.6-1.4,4.6-4.3S298.9,96,296.1,96z"></path>
<path class="st0" d="M325.2,96V117h-2.5V96H316v-2.2h16V96H325.2z"></path>
<path class="st0" d="M350.5,117v-10.6h-11.1V117H337V93.7h2.5v10.4h11.1V93.7h2.5V117L350.5,117z"></path>
<path class="st0" d="M360.4,117V93.7h14.5V96h-12v8.2h10.2v2.2h-10.2v8.4h12v2.2L360.4,117z"></path>
<path class="st0" d="M394.1,117l-5.3-10.3h-5.6V117h-2.5V93.7h8.9c4.1,0,6.9,2.5,6.9,6.5c0.1,3.1-2,5.8-5.1,6.3L397,117H394.1z   M389.4,96h-6.2v8.5h6.2c2.7,0,4.6-1.4,4.6-4.3S392.1,96,389.4,96z"></path>
<path class="st0" d="M416.4,117l-1.9-5.3h-10.2l-1.9,5.3h-2.7l8.6-23.3h2.1l8.5,23.3L416.4,117z M409.5,97.3l-4.4,12.3h8.7  L409.5,97.3z"></path>
<path class="st0" d="M432.1,107.5H426v9.6h-2.5V93.7h8.7c4.3,0,7.2,2.7,7.2,6.8S436.4,107.5,432.1,107.5z M431.9,96h-6v9.3h6  c2.9,0,4.9-1.6,4.9-4.7S434.8,96,431.9,96z"></path>
<path class="st0" d="M451.1,107.4v9.6h-2.5v-9.6l-6.9-13.7h2.7l5.5,11.2l5.4-11.2h2.7L451.1,107.4z"></path>
</svg>
