<svg id="Capa_1" data-name="Capa 1" xmlns="http://www.w3.org/2000/svg" viewBox="0 0 354.33 47.09"><path d="M27.75,46.7h-9L0,0H11.26L23.38,32.65,35.5,0h11Z"/><path d="M54.11,46.36V0h10.2V46.36Z"/><path d="M94,46.36H75.9V0H94c14.57,0,24.64,10,24.64,23.05v.13C118.62,36.23,108.55,46.36,94,46.36Zm14-23.18c0-8.21-5.63-14-14-14H86.1V37.16H94c8.35,0,14-5.63,14-13.85Z"/><path d="M155.84,46.36l-9.93-14.83h-8V46.36h-10.2V0h21.2c10.93,0,17.48,5.76,17.48,15.3v.13c0,7.49-4,12.19-9.93,14.38l11.32,16.55Zm.2-30.53c0-4.37-3-6.62-8-6.62H137.89V22.52h10.33c5,0,7.82-2.65,7.82-6.56Z"/><path d="M175.57,46.36V0h35V9.07H185.71v9.41h21.86v9.07H185.71v9.74h25.17v9.07Z"/><path d="M237.9,32.46h-7.75v13.9H220V0h18.94C250,0,256.64,6.56,256.64,16v.13C256.64,26.89,248.3,32.46,237.9,32.46Zm8.41-16.23c0-4.57-3.18-7-8.28-7h-7.88V23.38h8.08c5.1,0,8.08-3.05,8.08-7Z"/><path d="M283.53,47.09c-12.45,0-20.07-7-20.07-20.6V0h10.2V26.23c0,7.55,3.78,11.46,10,11.46s10-3.78,10-11.13V0h10.2V26.16C303.86,40.21,296,47.09,283.53,47.09Z"/><path d="M342.41,46.36l-9.94-14.83h-8V46.36h-10.2V0h21.19c10.93,0,17.49,5.76,17.49,15.3v.13c0,7.49-4,12.19-9.94,14.38l11.33,16.55Zm.2-30.53c0-4.37-3.05-6.62-8-6.62H324.46V22.52h10.33c5,0,7.82-2.65,7.82-6.56Z"/></svg>