<svg xmlns="http://www.w3.org/2000/svg" width="168.045" height="33.447" viewBox="0 0 168.045 33.447"><g id="Raggruppa_760" data-name="Raggruppa 760" transform="translate(1127 124)"><g id="_119-logo-vistosi" data-name="119-logo-vistosi" transform="translate(-1127 -124)"><g id="Raggruppa_195" data-name="Raggruppa 195" transform="translate(0 0.307)"><path id="Tracciato_188" data-name="Tracciato 188" d="M51.6,19.176a.633.633,0,0,1-1.1.634L43.428,9.662a4.816,4.816,0,0,0-8.044.508l-7.159,12.09a3.368,3.368,0,0,1-5.8-3.434L28.838,6.718a8.073,8.073,0,0,1,7.449-4.027,7.934,7.934,0,0,1,6.864,3.966L51.6,19.176" transform="translate(-13.466 -2.691)" fill="#20221e"></path><path id="Tracciato_189" data-name="Tracciato 189" d="M2.9,32.863A.633.633,0,0,1,4,32.229l7.077,10.148a4.817,4.817,0,0,0,8.043-.508l7.16-12.091a3.368,3.368,0,0,1,5.795,3.433l-6.409,12.11a8.072,8.072,0,0,1-7.449,4.026,7.931,7.931,0,0,1-6.863-3.965L2.9,32.863" transform="translate(-2.815 -16.842)" fill="#20221e"></path></g><g id="Raggruppa_196" data-name="Raggruppa 196" transform="translate(38.221 0)"><path id="Tracciato_190" data-name="Tracciato 190" d="M110.373,2.715h7.061l-11.045,32.5h-6.47L88.965,2.715h7.287l6.97,24.623h.091Z" transform="translate(-88.965 -2.398)" fill="#20221e"></path><path id="Tracciato_191" data-name="Tracciato 191" d="M163.329,10.735V34.812h-6.337V10.735Zm0-2.85h-6.337V2h6.337Z" transform="translate(-126.811 -2)" fill="#20221e"></path><path id="Tracciato_192" data-name="Tracciato 192" d="M190.79,28.228c-.27-1.539-.815-3.169-4.254-3.169s-3.893,1.312-3.893,2.354c0,3.8,15.071,1.041,15.071,9.911,0,7.016-6.788,8.282-10.545,8.282-5.476,0-11.405-1.9-11.586-8.327H182.1c0,2.037,1.267,3.53,5.249,3.53,3.259,0,4.029-1.583,4.029-2.489,0-4.028-14.937-1-14.937-10,0-3.531,2.217-8.056,9.731-8.056,4.709,0,10.32,1.177,10.817,7.965h-6.2Z" transform="translate(-137.155 -12.161)" fill="#20221e"></path><path id="Tracciato_193" data-name="Tracciato 193" d="M234.485,13.516h3.939v4.527h-3.939V31.121c0,1.4.045,1.947,2.626,1.947.407,0,.859-.044,1.313-.089v4.8c-1,.045-1.992.091-2.988.091h-.815c-5.476,0-6.472-2.083-6.472-5.2V18.043h-3.258V13.516h3.258V7h6.336Z" transform="translate(-164.587 -4.781)" fill="#20221e"></path><path id="Tracciato_194" data-name="Tracciato 194" d="M268.234,45.607c-6.473,0-12.31-3.982-12.31-12.672s5.838-12.672,12.31-12.672,12.311,3.982,12.311,12.672S274.706,45.607,268.234,45.607Zm0-20c-4.888,0-5.791,4.254-5.791,7.332s.9,7.332,5.791,7.332,5.794-4.254,5.794-7.332S273.122,25.6,268.234,25.6Z" transform="translate(-181.852 -12.161)" fill="#20221e"></path><path id="Tracciato_195" data-name="Tracciato 195" d="M327.184,28.228c-.27-1.539-.814-3.169-4.254-3.169s-3.893,1.312-3.893,2.354c0,3.8,15.071,1.041,15.071,9.911,0,7.016-6.788,8.282-10.545,8.282-5.477,0-11.4-1.9-11.586-8.327H318.5c0,2.037,1.266,3.53,5.249,3.53,3.259,0,4.027-1.583,4.027-2.489,0-4.028-14.936-1-14.936-10,0-3.531,2.217-8.056,9.731-8.056,4.708,0,10.32,1.177,10.818,7.965h-6.2Z" transform="translate(-213.037 -12.161)" fill="#20221e"></path><path id="Tracciato_196" data-name="Tracciato 196" d="M373.643,10.735V34.812h-6.336V10.735Zm0-2.85h-6.336V2h6.336Z" transform="translate(-243.819 -2)" fill="#20221e"></path></g></g></g></svg>